<svg version="1.1" id="Layer_1" xmlns="http://www.w3.org/2000/svg" xmlns:xlink="http://www.w3.org/1999/xlink" x="0px" y="0px"
	 width="100%" viewBox="0 0 980 980" enable-background="new 0 0 980 980" xml:space="preserve">
<path fill="#FFFFFF" opacity="1.000000" stroke="none" 
	d="
M524.000000,981.000000 
	C349.333344,981.000000 175.166672,981.000000 1.000000,981.000000 
	C1.000000,654.333313 1.000000,327.666656 1.000000,1.000000 
	C327.666656,1.000000 654.333313,1.000000 981.000000,1.000000 
	C981.000000,327.666656 981.000000,654.333313 981.000000,981.000000 
	C828.833313,981.000000 676.666687,981.000000 524.000000,981.000000 
M461.576904,455.264374 
	C462.096161,457.698853 462.892792,460.111877 463.082764,462.571777 
	C463.659180,470.036682 464.030853,477.518097 464.423981,484.996155 
	C464.706604,490.371429 466.075348,491.807251 471.278687,492.061096 
	C475.270508,492.255829 479.261597,492.725311 483.249329,492.686951 
	C489.722260,492.624786 496.267670,492.777222 502.644501,491.869629 
	C510.843506,490.702728 513.506714,487.148865 513.202759,478.907928 
	C512.994568,473.262512 512.034180,467.648834 511.675049,462.004120 
	C510.891235,449.683228 514.699707,445.695526 526.942078,443.988861 
	C539.449402,442.245300 552.198730,440.927887 564.244873,437.390289 
	C674.135437,405.118835 747.909058,335.543396 781.667358,225.173080 
	C784.046997,217.393158 785.711731,209.386871 787.528320,201.444550 
	C789.456848,193.012436 787.470276,190.556625 778.752136,190.141312 
	C777.920288,190.101685 777.084290,190.068817 776.253235,190.104324 
	C762.615417,190.687088 748.927917,190.733566 735.350159,191.977097 
	C696.534119,195.532120 660.159119,207.112808 626.320007,226.532257 
	C578.522888,253.961807 542.829163,293.192993 515.302063,340.388153 
	C514.458801,341.833984 513.576416,343.256989 512.712280,344.690674 
	C511.944702,329.425079 511.957886,314.601715 511.941864,299.778351 
	C511.912292,272.448334 511.949829,245.117752 511.773285,217.788605 
	C511.722015,209.846664 514.748962,203.975677 521.644531,200.062698 
	C523.235413,199.159927 524.775635,198.163330 526.307251,197.161148 
	C548.884766,182.387863 560.619873,155.082520 555.532715,129.182358 
	C548.462463,93.185585 516.799988,69.624840 480.151733,73.089699 
	C444.311920,76.478127 416.046173,111.044769 419.599213,146.719925 
	C421.917114,169.993530 433.014648,187.528946 453.063354,199.253815 
	C461.299744,204.070618 464.909180,210.738495 464.852020,220.137802 
	C464.607971,260.297058 464.566132,300.457520 464.431519,340.617462 
	C464.426910,341.987000 464.219818,343.355865 464.004150,345.975800 
	C462.451141,343.306610 461.542572,341.797974 460.683899,340.261444 
	C440.606628,304.335144 414.807678,273.267975 382.085968,248.157730 
	C339.706512,215.636230 291.828003,196.729553 238.726654,191.414261 
	C226.001816,190.140533 213.098892,190.037979 200.298157,190.319275 
	C189.713531,190.551849 186.870987,194.575821 188.789734,204.697296 
	C195.185150,238.433746 207.748672,269.850830 225.968857,298.837860 
	C270.529785,369.731262 332.784180,417.020691 414.231262,438.124512 
	C425.646698,441.082397 437.352753,442.902283 448.866608,445.504150 
	C454.168701,446.702332 459.003235,448.961273 461.576904,455.264374 
M484.951416,769.603394 
	C489.450073,769.613159 493.966370,769.883606 498.443909,769.580933 
	C509.319550,768.845764 512.051758,765.812439 512.051758,754.869873 
	C512.051636,719.037292 512.058533,683.204529 511.965759,647.372131 
	C511.946350,639.880798 511.337799,632.391357 511.303741,624.899597 
	C511.219543,606.378784 515.626953,599.934204 533.876953,597.135742 
	C535.516541,596.884277 537.260681,596.827515 538.755798,596.201477 
	C547.014160,592.743469 555.288513,589.304932 563.403442,585.529053 
	C570.135132,582.396667 573.777893,582.570129 579.396484,587.338684 
	C581.043884,588.736816 582.534058,590.323914 584.061523,591.859070 
	C612.978088,620.922119 641.873718,650.006165 670.824768,679.034851 
	C673.994934,682.213623 677.317993,685.285156 680.852539,688.044800 
	C686.325562,692.317810 690.913635,692.603394 696.297180,688.231262 
	C702.745361,682.994507 708.903870,677.331909 714.696655,671.376038 
	C720.771301,665.130432 720.490295,660.384888 714.453491,654.019653 
	C711.129150,650.514404 707.605469,647.198425 704.174255,643.794495 
	C675.778687,615.624878 647.364319,587.474060 619.001709,559.271362 
	C611.528198,551.839966 611.034668,547.362305 617.400818,540.414062 
	C627.955505,528.894287 635.023254,515.477905 640.115662,500.856934 
	C644.394104,488.572998 648.584839,485.740051 661.481079,485.763885 
	C694.146545,485.824280 726.812073,485.815460 759.477600,485.857361 
	C767.143616,485.867188 774.809509,485.966400 782.475464,486.027557 
	C786.203369,486.057281 789.588745,484.773804 789.763977,480.782196 
	C790.252075,469.660400 790.438599,458.509491 790.229736,447.379730 
	C790.127014,441.904724 786.417053,439.017090 780.989014,438.862640 
	C774.510010,438.678314 768.023376,438.733673 761.540039,438.731812 
	C714.874268,438.718445 668.208496,438.715302 621.542725,438.716187 
	C619.043701,438.716217 616.537842,438.676453 614.047119,438.838654 
	C608.158264,439.222046 605.249451,441.748718 604.093323,447.460846 
	C603.631714,449.741302 603.339783,452.059052 603.040710,454.368927 
	C600.493713,474.042175 594.248779,492.326752 581.904053,508.068970 
	C555.003967,542.372559 520.041016,559.747986 476.136871,555.734863 
	C430.518127,551.565063 391.169678,517.943604 378.189911,473.130402 
	C375.750580,464.708557 374.753021,455.872345 373.019196,447.241638 
	C372.023407,442.284882 369.160156,439.124634 363.901031,438.870392 
	C359.760406,438.670197 355.604340,438.769928 351.455109,438.771179 
	C305.289398,438.785126 259.123627,438.774719 212.958069,438.868347 
	C207.818710,438.878754 202.658295,439.295441 197.547699,439.876160 
	C191.651672,440.546143 187.912552,444.154419 187.601669,449.987396 
	C187.079819,459.778839 187.023514,469.612244 187.247375,479.417145 
	C187.328217,482.957947 189.751450,485.686218 193.616089,486.055420 
	C197.740662,486.449554 201.902588,486.627411 206.047058,486.610992 
	C243.372467,486.463013 280.697662,486.122131 318.022766,486.143341 
	C328.238922,486.149139 333.454895,490.606018 336.779358,500.337463 
	C338.015594,503.956329 339.202820,507.597778 340.604218,511.153290 
	C344.881409,522.005127 351.832031,531.082397 359.384033,539.841614 
	C364.695801,546.002441 364.441559,551.051086 359.377808,557.345520 
	C358.023712,559.028748 356.548859,560.627869 355.018066,562.153931 
	C332.830292,584.273254 310.561218,606.311401 288.453705,628.510498 
	C280.228973,636.769348 272.090851,645.149475 264.440369,653.933472 
	C258.824341,660.381531 259.026062,665.264587 264.468750,671.810364 
	C269.040863,677.309082 274.016968,682.490479 279.034943,687.595398 
	C286.214172,694.899109 290.319031,694.846619 297.589874,687.754150 
	C298.902069,686.474182 300.177063,685.156067 301.467896,683.854309 
	C331.509735,653.559875 361.542145,623.256042 391.611786,592.989258 
	C393.834412,590.752014 396.204590,588.622131 398.716156,586.719666 
	C403.571045,583.042236 409.119507,582.403381 414.173187,585.613159 
	C425.645355,592.899536 438.152954,596.835571 451.413300,599.187073 
	C459.387543,600.601135 463.115936,605.151794 464.161072,613.128357 
	C464.548492,616.085022 464.695099,619.094238 464.686493,622.078735 
	C464.563416,664.737000 464.071899,707.397888 464.438049,750.051575 
	C464.545227,762.535583 464.212463,769.161682 483.049561,769.348328 
	C483.380249,769.351624 483.710175,769.432617 484.951416,769.603394 
M174.191116,885.461792 
	C174.193619,875.134644 174.100845,864.806335 174.235641,854.480896 
	C174.312073,848.626709 176.863708,845.908691 181.700134,845.919434 
	C186.637802,845.930481 188.939240,848.558044 188.980530,854.544739 
	C189.047119,864.205139 188.999756,873.866272 189.000366,883.527100 
	C189.000595,886.956726 189.000397,890.386292 189.000397,893.851807 
	C199.135193,893.851807 208.574448,893.851807 218.576767,893.851807 
	C218.576767,891.840820 218.575897,890.046021 218.576904,888.251221 
	C218.583359,876.758240 218.492340,865.263916 218.639542,853.772766 
	C218.709946,848.277649 221.279312,845.822815 226.151718,845.920654 
	C230.780304,846.013672 233.045532,848.420837 233.187393,853.716797 
	C233.312210,858.377441 233.226868,863.043701 233.228271,867.707520 
	C233.230850,876.324890 233.229004,884.942261 233.229004,893.782471 
	C243.328278,893.782471 252.879395,893.782471 262.537811,893.782471 
	C262.537811,876.375305 263.414520,859.208130 262.273193,842.176270 
	C261.277405,827.316162 253.575546,819.331726 241.214355,817.361267 
	C230.650513,815.677368 221.142380,818.323181 213.287033,826.173706 
	C208.119141,819.746338 201.555664,817.234924 193.829559,816.944397 
	C186.026184,816.650879 179.732758,819.553528 174.429306,826.049927 
	C174.222839,823.173828 174.084549,821.247559 173.939972,819.233521 
	C164.205414,819.233521 154.676926,819.233521 145.279785,819.233521 
	C145.279785,844.367310 145.279785,869.090393 145.279785,893.729431 
	C155.064163,893.729431 164.470398,893.729431 174.191269,893.729431 
	C174.191269,891.071167 174.191269,888.759155 174.191116,885.461792 
M307.469482,822.986145 
	C306.547516,821.793701 305.625519,820.601257 304.567474,819.232849 
	C295.470490,819.232849 285.927856,819.232849 276.512207,819.232849 
	C276.512207,853.998230 276.512207,888.351440 276.512207,922.645142 
	C286.364441,922.645142 295.794006,922.645142 305.758789,922.645142 
	C305.758789,911.658813 305.758789,900.940979 305.758789,889.558960 
	C307.142975,890.258484 307.852875,890.557983 308.503479,890.954712 
	C325.987549,901.616028 347.470123,895.188965 355.901337,876.504272 
	C361.898407,863.213989 361.881836,849.644531 355.847992,836.376587 
	C347.262909,817.498840 324.749298,811.103516 307.469482,822.986145 
M684.861084,843.500000 
	C684.861084,869.898560 684.861084,896.297180 684.861084,922.686218 
	C695.002991,922.686218 704.278992,922.686218 714.049927,922.686218 
	C714.049927,911.580811 714.049927,900.697510 714.049927,889.117065 
	C715.393005,889.906616 716.070862,890.279541 716.723389,890.692383 
	C733.505432,901.308838 754.455444,895.841125 763.694275,878.225708 
	C768.996582,868.115845 770.054565,857.292725 767.792114,846.166565 
	C762.488708,820.086426 737.665894,809.368652 715.242188,823.410889 
	C715.034607,823.540894 714.626831,823.351379 714.324158,823.312561 
	C714.145264,821.885254 713.968262,820.472473 713.808472,819.197754 
	C703.980713,819.197754 694.577698,819.197754 684.860962,819.197754 
	C684.860962,827.211731 684.860962,834.855835 684.861084,843.500000 
M597.840332,877.584717 
	C607.274780,891.839355 621.064026,896.862366 637.452515,895.912842 
	C663.872864,894.382080 681.096497,869.752563 673.325012,844.572815 
	C668.307983,828.317383 656.485229,819.676025 640.171082,817.485535 
	C623.775269,815.283997 609.054565,819.469971 599.158386,833.577576 
	C589.489258,847.361572 589.529724,862.168823 597.840332,877.584717 
M602.909241,659.630371 
	C595.777954,651.228882 587.435425,644.404480 576.807373,641.044495 
	C564.157593,637.045471 553.054443,642.320129 548.727600,654.807190 
	C535.865540,691.926392 558.656311,717.634521 585.497192,725.912231 
	C596.678223,729.360352 604.513489,725.615540 608.822266,714.692383 
	C616.293762,695.751465 615.816895,677.292603 602.909241,659.630371 
M388.900360,646.329285 
	C386.288727,648.384094 383.605865,650.355286 381.076569,652.506836 
	C359.045288,671.247498 361.116272,699.466675 368.874664,715.825012 
	C373.606964,725.802917 380.303467,729.065735 390.810883,726.107544 
	C417.387695,718.625427 440.842712,692.684753 428.872650,655.683960 
	C424.726501,642.867798 413.315094,637.133850 400.345367,641.014221 
	C396.582092,642.140137 393.121307,644.277039 388.900360,646.329285 
M256.375244,518.900269 
	C233.100052,522.314758 218.975433,536.436157 211.762756,557.954529 
	C208.190048,568.613281 211.797821,576.252869 222.136902,580.718323 
	C227.693680,583.118347 233.808701,584.800903 239.820938,585.472534 
	C266.821869,588.488770 287.327209,575.244324 297.092377,549.065125 
	C300.838928,539.021057 296.845795,528.611206 288.198883,523.958923 
	C278.560364,518.773132 267.986847,517.938477 256.375244,518.900269 
M384.133545,851.490234 
	C383.048706,851.912415 381.946075,852.294250 380.881714,852.762939 
	C370.352905,857.399048 364.996307,866.020569 366.193604,876.373779 
	C367.403992,886.840454 373.405914,892.909851 385.017914,895.381104 
	C394.587433,897.417603 403.071045,894.973083 410.906738,888.459106 
	C411.288605,890.589783 411.566223,892.138733 411.852173,893.734314 
	C421.601166,893.734314 431.150940,893.734314 440.871735,893.734314 
	C440.871735,876.746582 441.343353,860.088806 440.717896,843.472412 
	C440.244171,830.887268 432.412964,822.293274 420.127716,818.853333 
	C409.040771,815.749023 398.016144,816.207336 387.263336,820.228149 
	C381.067688,822.544861 375.433105,825.902954 370.940704,831.348450 
	C376.042267,834.836121 380.600555,838.213806 385.447937,841.107056 
	C386.904053,841.976196 389.217041,841.839172 391.047516,841.564148 
	C395.110809,840.953552 399.119385,839.280090 403.146149,839.293457 
	C408.801392,839.312195 411.416443,843.057861 410.662445,847.734436 
	C401.940765,848.906982 393.409576,850.053894 384.133545,851.490234 
M722.143982,585.630798 
	C734.734924,587.367737 746.691589,585.632812 757.674011,578.938416 
	C764.539490,574.753540 767.070618,568.950500 765.630310,561.132812 
	C758.758240,523.833191 721.165771,511.497986 692.606689,522.249023 
	C681.453796,526.447571 676.215515,537.340454 680.216736,548.706665 
	C687.102539,568.266968 700.527649,581.093872 722.143982,585.630798 
M830.361328,853.725281 
	C820.140076,859.378784 816.270752,867.173218 818.018799,878.588379 
	C819.333923,887.176270 825.695557,892.987671 836.220337,895.304443 
	C846.159668,897.492371 854.872375,894.938782 862.780701,887.996521 
	C862.945923,890.319885 863.068542,892.044434 863.192566,893.789185 
	C872.993225,893.789185 882.415649,893.789185 892.176453,893.789185 
	C892.176453,877.043884 892.444275,860.582764 892.087830,844.135193 
	C891.824036,831.961182 884.825439,822.848572 873.131531,819.309326 
	C858.812256,814.975464 844.786682,816.037781 831.682495,823.712769 
	C828.366699,825.654724 825.494446,828.354065 821.959412,831.056213 
	C827.388550,834.779419 832.004700,837.757629 836.398010,841.034668 
	C838.696106,842.748718 840.422119,842.575134 843.074341,841.529297 
	C846.687866,840.104492 850.788818,839.235168 854.659241,839.305847 
	C860.159790,839.406250 862.742676,843.024353 862.262695,848.693237 
	C851.631348,848.632690 840.928345,848.495850 830.361328,853.725281 
M452.993652,842.680359 
	C446.026215,864.507507 455.429871,885.377625 475.731842,893.144775 
	C495.167206,900.580383 520.152161,893.065857 527.326111,877.299683 
	C519.344910,872.437317 511.322693,867.549927 503.416748,862.733398 
	C496.640839,869.694824 489.056183,870.608276 483.644470,865.492493 
	C479.010193,861.111572 478.557434,852.909180 482.996704,848.277710 
	C488.675537,842.353027 496.767456,842.877991 503.672577,850.189392 
	C511.606140,845.270386 519.580688,840.326050 527.935913,835.145691 
	C517.699036,821.184753 504.309753,815.873535 488.335358,817.150635 
	C471.957001,818.460022 459.707703,826.275696 452.993652,842.680359 
M530.892883,829.516479 
	C530.892883,834.268127 530.892883,839.019836 530.892883,844.242004 
	C534.372620,844.242004 537.110779,844.242004 540.128113,844.242004 
	C540.128113,851.206360 539.983704,857.687622 540.156738,864.160339 
	C540.583740,880.136414 548.049255,891.371460 561.377075,894.225342 
	C567.877502,895.617371 574.869690,894.861389 581.632080,894.724121 
	C582.656311,894.703369 584.475830,892.780823 584.510864,891.692383 
	C584.761353,883.911255 584.644592,876.118286 584.644592,868.022156 
	C581.653931,868.022156 579.170471,868.213501 576.728394,867.977295 
	C573.042358,867.620789 570.227539,865.680115 570.014954,861.815552 
	C569.698242,856.059021 569.932861,850.272278 569.932861,844.043701 
	C574.883789,844.043701 579.477539,844.043701 584.356201,844.043701 
	C584.356201,835.516113 584.356201,827.448669 584.356201,818.843628 
	C579.542542,818.843628 574.962463,818.843628 569.702515,818.843628 
	C569.702515,813.291565 569.702515,808.255310 569.702515,803.378967 
	C559.442993,803.378967 549.885864,803.378967 539.838135,803.378967 
	C539.838135,808.688599 539.838135,813.592712 539.838135,818.645935 
	C536.612793,818.787659 533.883423,818.907593 530.892822,819.039001 
	C530.892822,822.572083 530.892822,825.549561 530.892883,829.516479 
M130.834045,794.692505 
	C130.740662,793.248840 130.647278,791.805237 130.551071,790.317871 
	C119.305145,790.317871 108.420616,790.317871 97.456314,790.317871 
	C97.456314,824.990601 97.456314,859.338989 97.456314,893.743408 
	C108.663521,893.743408 119.543922,893.743408 130.834106,893.743408 
	C130.834106,860.819336 130.834106,828.237305 130.834045,794.692505 
M807.976868,839.500122 
	C807.976868,832.733032 807.976868,825.965942 807.976868,819.207642 
	C797.815308,819.207642 788.282166,819.207642 778.685913,819.207642 
	C778.685913,844.313171 778.685913,869.027100 778.685913,893.721558 
	C788.577820,893.721558 798.132202,893.721558 807.976868,893.721558 
	C807.976868,875.737549 807.976868,858.118835 807.976868,839.500122 
M808.858582,794.046631 
	C808.494446,792.944641 808.230835,791.796631 807.750000,790.748169 
	C804.369141,783.376282 796.105042,779.864502 788.543213,782.542603 
	C781.072632,785.188354 776.934631,793.202209 778.989990,801.043884 
	C780.929443,808.443481 788.148987,813.325134 795.576477,812.259216 
	C804.266418,811.012085 809.069092,804.768982 808.858582,794.046631 
z"/>
<path fill="#4B7C56" opacity="1.000000" stroke="none" 
	d="
M461.400269,454.914734 
	C459.003235,448.961273 454.168701,446.702332 448.866608,445.504150 
	C437.352753,442.902283 425.646698,441.082397 414.231262,438.124512 
	C332.784180,417.020691 270.529785,369.731262 225.968857,298.837860 
	C207.748672,269.850830 195.185150,238.433746 188.789734,204.697296 
	C186.870987,194.575821 189.713531,190.551849 200.298157,190.319275 
	C213.098892,190.037979 226.001816,190.140533 238.726654,191.414261 
	C291.828003,196.729553 339.706512,215.636230 382.085968,248.157730 
	C414.807678,273.267975 440.606628,304.335144 460.683899,340.261444 
	C461.542572,341.797974 462.451141,343.306610 464.004150,345.975800 
	C464.219818,343.355865 464.426910,341.987000 464.431519,340.617462 
	C464.566132,300.457520 464.607971,260.297058 464.852020,220.137802 
	C464.909180,210.738495 461.299744,204.070618 453.063354,199.253815 
	C433.014648,187.528946 421.917114,169.993530 419.599213,146.719925 
	C416.046173,111.044769 444.311920,76.478127 480.151733,73.089699 
	C516.799988,69.624840 548.462463,93.185585 555.532715,129.182358 
	C560.619873,155.082520 548.884766,182.387863 526.307251,197.161148 
	C524.775635,198.163330 523.235413,199.159927 521.644531,200.062698 
	C514.748962,203.975677 511.722015,209.846664 511.773285,217.788605 
	C511.949829,245.117752 511.912292,272.448334 511.941864,299.778351 
	C511.957886,314.601715 511.944702,329.425079 512.712280,344.690674 
	C513.576416,343.256989 514.458801,341.833984 515.302063,340.388153 
	C542.829163,293.192993 578.522888,253.961807 626.320007,226.532257 
	C660.159119,207.112808 696.534119,195.532120 735.350159,191.977097 
	C748.927917,190.733566 762.615417,190.687088 776.253235,190.104324 
	C777.084290,190.068817 777.920288,190.101685 778.752136,190.141312 
	C787.470276,190.556625 789.456848,193.012436 787.528320,201.444550 
	C785.711731,209.386871 784.046997,217.393158 781.667358,225.173080 
	C747.909058,335.543396 674.135437,405.118835 564.244873,437.390289 
	C552.198730,440.927887 539.449402,442.245300 526.942078,443.988861 
	C514.699707,445.695526 510.891235,449.683228 511.675049,462.004120 
	C512.034180,467.648834 512.994568,473.262512 513.202759,478.907928 
	C513.506714,487.148865 510.843506,490.702728 502.644501,491.869629 
	C496.267670,492.777222 489.722260,492.624786 483.249329,492.686951 
	C479.261597,492.725311 475.270508,492.255829 471.278687,492.061096 
	C466.075348,491.807251 464.706604,490.371429 464.423981,484.996155 
	C464.030853,477.518097 463.659180,470.036682 463.082764,462.571777 
	C462.892792,460.111877 462.096161,457.698853 461.400269,454.914734 
M549.910217,389.089569 
	C565.595398,387.937561 580.061340,382.398956 594.035095,375.844299 
	C633.080566,357.529083 665.895447,331.118469 692.859863,297.529327 
	C704.888123,282.545837 714.793640,266.230286 720.884277,247.842026 
	C721.457886,246.110214 721.588135,244.231552 722.205872,240.904358 
	C708.573059,245.168121 696.131042,248.650391 683.976074,252.945038 
	C657.675415,262.237701 633.928894,276.159607 613.047791,294.625488 
	C586.447266,318.149170 566.989014,346.944275 552.486328,379.197845 
	C551.070435,382.346680 550.126343,385.707581 548.673462,389.089020 
	C548.793640,389.072937 548.913818,389.056854 549.910217,389.089569 
M425.195160,390.734100 
	C425.006805,388.891022 425.180267,386.918884 424.575928,385.224152 
	C415.182343,358.880615 400.647034,335.528168 382.100800,314.780792 
	C357.572418,287.341187 328.578430,266.014343 293.889130,252.954468 
	C280.285522,247.832977 266.254089,244.626221 250.447647,243.206970 
	C257.017639,254.866333 262.730133,265.755066 269.131744,276.222382 
	C287.658447,306.515289 311.299042,332.061523 340.555359,352.366760 
	C366.248566,370.199066 394.424408,382.509155 425.195160,390.734100 
M455.133667,121.755112 
	C451.309937,129.371185 449.768646,137.279419 450.880096,145.876816 
	C453.199554,163.818756 469.827484,180.883759 492.613831,179.208023 
	C510.983887,177.857071 527.324585,161.128616 527.954407,142.048462 
	C528.549316,124.026184 517.387878,108.381378 500.202728,103.149506 
	C483.134979,97.953377 465.520538,105.031311 455.133667,121.755112 
z"/>
<path fill="#E8B541" opacity="1.000000" stroke="none" 
	d="
M484.495911,769.540405 
	C483.710175,769.432617 483.380249,769.351624 483.049561,769.348328 
	C464.212463,769.161682 464.545227,762.535583 464.438049,750.051575 
	C464.071899,707.397888 464.563416,664.737000 464.686493,622.078735 
	C464.695099,619.094238 464.548492,616.085022 464.161072,613.128357 
	C463.115936,605.151794 459.387543,600.601135 451.413300,599.187073 
	C438.152954,596.835571 425.645355,592.899536 414.173187,585.613159 
	C409.119507,582.403381 403.571045,583.042236 398.716156,586.719666 
	C396.204590,588.622131 393.834412,590.752014 391.611786,592.989258 
	C361.542145,623.256042 331.509735,653.559875 301.467896,683.854309 
	C300.177063,685.156067 298.902069,686.474182 297.589874,687.754150 
	C290.319031,694.846619 286.214172,694.899109 279.034943,687.595398 
	C274.016968,682.490479 269.040863,677.309082 264.468750,671.810364 
	C259.026062,665.264587 258.824341,660.381531 264.440369,653.933472 
	C272.090851,645.149475 280.228973,636.769348 288.453705,628.510498 
	C310.561218,606.311401 332.830292,584.273254 355.018066,562.153931 
	C356.548859,560.627869 358.023712,559.028748 359.377808,557.345520 
	C364.441559,551.051086 364.695801,546.002441 359.384033,539.841614 
	C351.832031,531.082397 344.881409,522.005127 340.604218,511.153290 
	C339.202820,507.597778 338.015594,503.956329 336.779358,500.337463 
	C333.454895,490.606018 328.238922,486.149139 318.022766,486.143341 
	C280.697662,486.122131 243.372467,486.463013 206.047058,486.610992 
	C201.902588,486.627411 197.740662,486.449554 193.616089,486.055420 
	C189.751450,485.686218 187.328217,482.957947 187.247375,479.417145 
	C187.023514,469.612244 187.079819,459.778839 187.601669,449.987396 
	C187.912552,444.154419 191.651672,440.546143 197.547699,439.876160 
	C202.658295,439.295441 207.818710,438.878754 212.958069,438.868347 
	C259.123627,438.774719 305.289398,438.785126 351.455109,438.771179 
	C355.604340,438.769928 359.760406,438.670197 363.901031,438.870392 
	C369.160156,439.124634 372.023407,442.284882 373.019196,447.241638 
	C374.753021,455.872345 375.750580,464.708557 378.189911,473.130402 
	C391.169678,517.943604 430.518127,551.565063 476.136871,555.734863 
	C520.041016,559.747986 555.003967,542.372559 581.904053,508.068970 
	C594.248779,492.326752 600.493713,474.042175 603.040710,454.368927 
	C603.339783,452.059052 603.631714,449.741302 604.093323,447.460846 
	C605.249451,441.748718 608.158264,439.222046 614.047119,438.838654 
	C616.537842,438.676453 619.043701,438.716217 621.542725,438.716187 
	C668.208496,438.715302 714.874268,438.718445 761.540039,438.731812 
	C768.023376,438.733673 774.510010,438.678314 780.989014,438.862640 
	C786.417053,439.017090 790.127014,441.904724 790.229736,447.379730 
	C790.438599,458.509491 790.252075,469.660400 789.763977,480.782196 
	C789.588745,484.773804 786.203369,486.057281 782.475464,486.027557 
	C774.809509,485.966400 767.143616,485.867188 759.477600,485.857361 
	C726.812073,485.815460 694.146545,485.824280 661.481079,485.763885 
	C648.584839,485.740051 644.394104,488.572998 640.115662,500.856934 
	C635.023254,515.477905 627.955505,528.894287 617.400818,540.414062 
	C611.034668,547.362305 611.528198,551.839966 619.001709,559.271362 
	C647.364319,587.474060 675.778687,615.624878 704.174255,643.794495 
	C707.605469,647.198425 711.129150,650.514404 714.453491,654.019653 
	C720.490295,660.384888 720.771301,665.130432 714.696655,671.376038 
	C708.903870,677.331909 702.745361,682.994507 696.297180,688.231262 
	C690.913635,692.603394 686.325562,692.317810 680.852539,688.044800 
	C677.317993,685.285156 673.994934,682.213623 670.824768,679.034851 
	C641.873718,650.006165 612.978088,620.922119 584.061523,591.859070 
	C582.534058,590.323914 581.043884,588.736816 579.396484,587.338684 
	C573.777893,582.570129 570.135132,582.396667 563.403442,585.529053 
	C555.288513,589.304932 547.014160,592.743469 538.755798,596.201477 
	C537.260681,596.827515 535.516541,596.884277 533.876953,597.135742 
	C515.626953,599.934204 511.219543,606.378784 511.303741,624.899597 
	C511.337799,632.391357 511.946350,639.880798 511.965759,647.372131 
	C512.058533,683.204529 512.051636,719.037292 512.051758,754.869873 
	C512.051758,765.812439 509.319550,768.845764 498.443909,769.580933 
	C493.966370,769.883606 489.450073,769.613159 484.495911,769.540405 
z"/>
<path fill="#5C9B67" opacity="1.000000" stroke="none" 
	d="
M174.191193,885.954468 
	C174.191269,888.759155 174.191269,891.071167 174.191269,893.729431 
	C164.470398,893.729431 155.064163,893.729431 145.279785,893.729431 
	C145.279785,869.090393 145.279785,844.367310 145.279785,819.233521 
	C154.676926,819.233521 164.205414,819.233521 173.939972,819.233521 
	C174.084549,821.247559 174.222839,823.173828 174.429306,826.049927 
	C179.732758,819.553528 186.026184,816.650879 193.829559,816.944397 
	C201.555664,817.234924 208.119141,819.746338 213.287033,826.173706 
	C221.142380,818.323181 230.650513,815.677368 241.214355,817.361267 
	C253.575546,819.331726 261.277405,827.316162 262.273193,842.176270 
	C263.414520,859.208130 262.537811,876.375305 262.537811,893.782471 
	C252.879395,893.782471 243.328278,893.782471 233.229004,893.782471 
	C233.229004,884.942261 233.230850,876.324890 233.228271,867.707520 
	C233.226868,863.043701 233.312210,858.377441 233.187393,853.716797 
	C233.045532,848.420837 230.780304,846.013672 226.151718,845.920654 
	C221.279312,845.822815 218.709946,848.277649 218.639542,853.772766 
	C218.492340,865.263916 218.583359,876.758240 218.576904,888.251221 
	C218.575897,890.046021 218.576767,891.840820 218.576767,893.851807 
	C208.574448,893.851807 199.135193,893.851807 189.000397,893.851807 
	C189.000397,890.386292 189.000595,886.956726 189.000366,883.527100 
	C188.999756,873.866272 189.047119,864.205139 188.980530,854.544739 
	C188.939240,848.558044 186.637802,845.930481 181.700134,845.919434 
	C176.863708,845.908691 174.312073,848.626709 174.235641,854.480896 
	C174.100845,864.806335 174.193619,875.134644 174.191193,885.954468 
z"/>
<path fill="#5D9B68" opacity="1.000000" stroke="none" 
	d="
M307.759949,822.761108 
	C324.749298,811.103516 347.262909,817.498840 355.847992,836.376587 
	C361.881836,849.644531 361.898407,863.213989 355.901337,876.504272 
	C347.470123,895.188965 325.987549,901.616028 308.503479,890.954712 
	C307.852875,890.557983 307.142975,890.258484 305.758789,889.558960 
	C305.758789,900.940979 305.758789,911.658813 305.758789,922.645142 
	C295.794006,922.645142 286.364441,922.645142 276.512207,922.645142 
	C276.512207,888.351440 276.512207,853.998230 276.512207,819.232849 
	C285.927856,819.232849 295.470490,819.232849 304.567474,819.232849 
	C305.625519,820.601257 306.547516,821.793701 307.759949,822.761108 
M320.075439,868.692688 
	C327.286163,866.833130 330.644012,863.150208 330.839478,856.886536 
	C331.012939,851.326843 327.799255,846.557556 322.757050,844.977478 
	C317.910431,843.458618 313.415619,844.176758 309.839539,847.855103 
	C306.091370,851.710449 305.679108,856.530518 307.439880,861.356201 
	C309.401825,866.733215 313.827179,868.712830 320.075439,868.692688 
z"/>
<path fill="#5C9B67" opacity="1.000000" stroke="none" 
	d="
M684.861023,843.000000 
	C684.860962,834.855835 684.860962,827.211731 684.860962,819.197754 
	C694.577698,819.197754 703.980713,819.197754 713.808472,819.197754 
	C713.968262,820.472473 714.145264,821.885254 714.324158,823.312561 
	C714.626831,823.351379 715.034607,823.540894 715.242188,823.410889 
	C737.665894,809.368652 762.488708,820.086426 767.792114,846.166565 
	C770.054565,857.292725 768.996582,868.115845 763.694275,878.225708 
	C754.455444,895.841125 733.505432,901.308838 716.723389,890.692383 
	C716.070862,890.279541 715.393005,889.906616 714.049927,889.117065 
	C714.049927,900.697510 714.049927,911.580811 714.049927,922.686218 
	C704.278992,922.686218 695.002991,922.686218 684.861084,922.686218 
	C684.861084,896.297180 684.861084,869.898560 684.861023,843.000000 
M736.427368,848.185120 
	C735.243896,847.296692 734.161438,846.205444 732.858643,845.556458 
	C728.187256,843.229492 722.532898,844.016296 718.937195,847.329163 
	C715.301270,850.679077 714.104431,856.105164 715.912048,861.044861 
	C717.647888,865.788330 721.810425,868.704407 726.966248,868.788879 
	C737.391296,868.959839 742.466675,858.755554 736.427368,848.185120 
z"/>
<path fill="#5C9B67" opacity="1.000000" stroke="none" 
	d="
M597.631592,877.280640 
	C589.529724,862.168823 589.489258,847.361572 599.158386,833.577576 
	C609.054565,819.469971 623.775269,815.283997 640.171082,817.485535 
	C656.485229,819.676025 668.307983,828.317383 673.325012,844.572815 
	C681.096497,869.752563 663.872864,894.382080 637.452515,895.912842 
	C621.064026,896.862366 607.274780,891.839355 597.631592,877.280640 
M638.840210,845.353088 
	C637.884399,845.085144 636.941833,844.749084 635.970642,844.560120 
	C628.685303,843.142761 622.726196,847.296021 621.531738,854.595093 
	C620.392883,861.554688 624.676270,867.485352 631.666199,868.627075 
	C637.140869,869.521179 642.622925,866.585022 644.675354,861.659363 
	C647.170776,855.670532 645.272278,849.821777 638.840210,845.353088 
z"/>
<path fill="#4C7C56" opacity="1.000000" stroke="none" 
	d="
M603.119934,659.918823 
	C615.816895,677.292603 616.293762,695.751465 608.822266,714.692383 
	C604.513489,725.615540 596.678223,729.360352 585.497192,725.912231 
	C558.656311,717.634521 535.865540,691.926392 548.727600,654.807190 
	C553.054443,642.320129 564.157593,637.045471 576.807373,641.044495 
	C587.435425,644.404480 595.777954,651.228882 603.119934,659.918823 
z"/>
<path fill="#4C7C56" opacity="1.000000" stroke="none" 
	d="
M389.211090,646.139893 
	C393.121307,644.277039 396.582092,642.140137 400.345367,641.014221 
	C413.315094,637.133850 424.726501,642.867798 428.872650,655.683960 
	C440.842712,692.684753 417.387695,718.625427 390.810883,726.107544 
	C380.303467,729.065735 373.606964,725.802917 368.874664,715.825012 
	C361.116272,699.466675 359.045288,671.247498 381.076569,652.506836 
	C383.605865,650.355286 386.288727,648.384094 389.211090,646.139893 
z"/>
<path fill="#4C7C56" opacity="1.000000" stroke="none" 
	d="
M256.804382,518.830688 
	C267.986847,517.938477 278.560364,518.773132 288.198883,523.958923 
	C296.845795,528.611206 300.838928,539.021057 297.092377,549.065125 
	C287.327209,575.244324 266.821869,588.488770 239.820938,585.472534 
	C233.808701,584.800903 227.693680,583.118347 222.136902,580.718323 
	C211.797821,576.252869 208.190048,568.613281 211.762756,557.954529 
	C218.975433,536.436157 233.100052,522.314758 256.804382,518.830688 
z"/>
<path fill="#5C9B67" opacity="1.000000" stroke="none" 
	d="
M384.505981,851.345459 
	C393.409576,850.053894 401.940765,848.906982 410.662445,847.734436 
	C411.416443,843.057861 408.801392,839.312195 403.146149,839.293457 
	C399.119385,839.280090 395.110809,840.953552 391.047516,841.564148 
	C389.217041,841.839172 386.904053,841.976196 385.447937,841.107056 
	C380.600555,838.213806 376.042267,834.836121 370.940704,831.348450 
	C375.433105,825.902954 381.067688,822.544861 387.263336,820.228149 
	C398.016144,816.207336 409.040771,815.749023 420.127716,818.853333 
	C432.412964,822.293274 440.244171,830.887268 440.717896,843.472412 
	C441.343353,860.088806 440.871735,876.746582 440.871735,893.734314 
	C431.150940,893.734314 421.601166,893.734314 411.852173,893.734314 
	C411.566223,892.138733 411.288605,890.589783 410.906738,888.459106 
	C403.071045,894.973083 394.587433,897.417603 385.017914,895.381104 
	C373.405914,892.909851 367.403992,886.840454 366.193604,876.373779 
	C364.996307,866.020569 370.352905,857.399048 380.881714,852.762939 
	C381.946075,852.294250 383.048706,851.912415 384.505981,851.345459 
M401.621277,874.216553 
	C410.693542,873.516968 412.764771,870.920288 410.916046,861.528442 
	C407.288940,862.182068 403.389313,862.270508 400.084503,863.717468 
	C398.189758,864.546997 396.331543,867.533875 396.221039,869.642029 
	C396.146240,871.068481 399.142181,872.655945 401.621277,874.216553 
z"/>
<path fill="#4C7C56" opacity="1.000000" stroke="none" 
	d="
M721.719849,585.518555 
	C700.527649,581.093872 687.102539,568.266968 680.216736,548.706665 
	C676.215515,537.340454 681.453796,526.447571 692.606689,522.249023 
	C721.165771,511.497986 758.758240,523.833191 765.630310,561.132812 
	C767.070618,568.950500 764.539490,574.753540 757.674011,578.938416 
	C746.691589,585.632812 734.734924,587.367737 721.719849,585.518555 
z"/>
<path fill="#5C9B67" opacity="1.000000" stroke="none" 
	d="
M830.681396,853.527588 
	C840.928345,848.495850 851.631348,848.632690 862.262695,848.693237 
	C862.742676,843.024353 860.159790,839.406250 854.659241,839.305847 
	C850.788818,839.235168 846.687866,840.104492 843.074341,841.529297 
	C840.422119,842.575134 838.696106,842.748718 836.398010,841.034668 
	C832.004700,837.757629 827.388550,834.779419 821.959412,831.056213 
	C825.494446,828.354065 828.366699,825.654724 831.682495,823.712769 
	C844.786682,816.037781 858.812256,814.975464 873.131531,819.309326 
	C884.825439,822.848572 891.824036,831.961182 892.087830,844.135193 
	C892.444275,860.582764 892.176453,877.043884 892.176453,893.789185 
	C882.415649,893.789185 872.993225,893.789185 863.192566,893.789185 
	C863.068542,892.044434 862.945923,890.319885 862.780701,887.996521 
	C854.872375,894.938782 846.159668,897.492371 836.220337,895.304443 
	C825.695557,892.987671 819.333923,887.176270 818.018799,878.588379 
	C816.270752,867.173218 820.140076,859.378784 830.681396,853.527588 
M847.328674,867.955383 
	C847.650696,873.237915 849.513367,875.028137 854.948853,874.047791 
	C863.251953,872.550293 864.108826,870.012756 862.393311,861.982361 
	C856.920166,862.164185 851.146729,861.293274 847.328674,867.955383 
z"/>
<path fill="#5D9B67" opacity="1.000000" stroke="none" 
	d="
M453.104034,842.301758 
	C459.707703,826.275696 471.957001,818.460022 488.335358,817.150635 
	C504.309753,815.873535 517.699036,821.184753 527.935913,835.145691 
	C519.580688,840.326050 511.606140,845.270386 503.672577,850.189392 
	C496.767456,842.877991 488.675537,842.353027 482.996704,848.277710 
	C478.557434,852.909180 479.010193,861.111572 483.644470,865.492493 
	C489.056183,870.608276 496.640839,869.694824 503.416748,862.733398 
	C511.322693,867.549927 519.344910,872.437317 527.326111,877.299683 
	C520.152161,893.065857 495.167206,900.580383 475.731842,893.144775 
	C455.429871,885.377625 446.026215,864.507507 453.104034,842.301758 
z"/>
<path fill="#5D9C68" opacity="1.000000" stroke="none" 
	d="
M530.892822,829.021790 
	C530.892822,825.549561 530.892822,822.572083 530.892822,819.039001 
	C533.883423,818.907593 536.612793,818.787659 539.838135,818.645935 
	C539.838135,813.592712 539.838135,808.688599 539.838135,803.378967 
	C549.885864,803.378967 559.442993,803.378967 569.702515,803.378967 
	C569.702515,808.255310 569.702515,813.291565 569.702515,818.843628 
	C574.962463,818.843628 579.542542,818.843628 584.356201,818.843628 
	C584.356201,827.448669 584.356201,835.516113 584.356201,844.043701 
	C579.477539,844.043701 574.883789,844.043701 569.932861,844.043701 
	C569.932861,850.272278 569.698242,856.059021 570.014954,861.815552 
	C570.227539,865.680115 573.042358,867.620789 576.728394,867.977295 
	C579.170471,868.213501 581.653931,868.022156 584.644592,868.022156 
	C584.644592,876.118286 584.761353,883.911255 584.510864,891.692383 
	C584.475830,892.780823 582.656311,894.703369 581.632080,894.724121 
	C574.869690,894.861389 567.877502,895.617371 561.377075,894.225342 
	C548.049255,891.371460 540.583740,880.136414 540.156738,864.160339 
	C539.983704,857.687622 540.128113,851.206360 540.128113,844.242004 
	C537.110779,844.242004 534.372620,844.242004 530.892883,844.242004 
	C530.892883,839.019836 530.892883,834.268127 530.892822,829.021790 
z"/>
<path fill="#5E9C68" opacity="1.000000" stroke="none" 
	d="
M130.834076,795.173889 
	C130.834106,828.237305 130.834106,860.819336 130.834106,893.743408 
	C119.543922,893.743408 108.663521,893.743408 97.456314,893.743408 
	C97.456314,859.338989 97.456314,824.990601 97.456314,790.317871 
	C108.420616,790.317871 119.305145,790.317871 130.551071,790.317871 
	C130.647278,791.805237 130.740662,793.248840 130.834076,795.173889 
z"/>
<path fill="#5E9C69" opacity="1.000000" stroke="none" 
	d="
M807.976868,840.000122 
	C807.976868,858.118835 807.976868,875.737549 807.976868,893.721558 
	C798.132202,893.721558 788.577820,893.721558 778.685913,893.721558 
	C778.685913,869.027100 778.685913,844.313171 778.685913,819.207642 
	C788.282166,819.207642 797.815308,819.207642 807.976868,819.207642 
	C807.976868,825.965942 807.976868,832.733032 807.976868,840.000122 
z"/>
<path fill="#E8B643" opacity="1.000000" stroke="none" 
	d="
M808.904175,794.460815 
	C809.069092,804.768982 804.266418,811.012085 795.576477,812.259216 
	C788.148987,813.325134 780.929443,808.443481 778.989990,801.043884 
	C776.934631,793.202209 781.072632,785.188354 788.543213,782.542603 
	C796.105042,779.864502 804.369141,783.376282 807.750000,790.748169 
	C808.230835,791.796631 808.494446,792.944641 808.904175,794.460815 
z"/>
<path fill="#81B574" opacity="1.000000" stroke="none" 
	d="
M548.963196,388.970062 
	C550.126343,385.707581 551.070435,382.346680 552.486328,379.197845 
	C566.989014,346.944275 586.447266,318.149170 613.047791,294.625488 
	C633.928894,276.159607 657.675415,262.237701 683.976074,252.945038 
	C696.131042,248.650391 708.573059,245.168121 722.205872,240.904358 
	C721.588135,244.231552 721.457886,246.110214 720.884277,247.842026 
	C714.793640,266.230286 704.888123,282.545837 692.859863,297.529327 
	C665.895447,331.118469 633.080566,357.529083 594.035095,375.844299 
	C580.061340,382.398956 565.595398,387.937561 549.455566,389.046326 
	C549.000977,389.003082 548.963196,388.970062 548.963196,388.970062 
z"/>
<path fill="#81B574" opacity="1.000000" stroke="none" 
	d="
M424.816345,390.803650 
	C394.424408,382.509155 366.248566,370.199066 340.555359,352.366760 
	C311.299042,332.061523 287.658447,306.515289 269.131744,276.222382 
	C262.730133,265.755066 257.017639,254.866333 250.447647,243.206970 
	C266.254089,244.626221 280.285522,247.832977 293.889130,252.954468 
	C328.578430,266.014343 357.572418,287.341187 382.100800,314.780792 
	C400.647034,335.528168 415.182343,358.880615 424.575928,385.224152 
	C425.180267,386.918884 425.006805,388.891022 424.816345,390.803650 
z"/>
<path fill="#E7B540" opacity="1.000000" stroke="none" 
	d="
M455.317993,121.433197 
	C465.520538,105.031311 483.134979,97.953377 500.202728,103.149506 
	C517.387878,108.381378 528.549316,124.026184 527.954407,142.048462 
	C527.324585,161.128616 510.983887,177.857071 492.613831,179.208023 
	C469.827484,180.883759 453.199554,163.818756 450.880096,145.876816 
	C449.768646,137.279419 451.309937,129.371185 455.317993,121.433197 
z"/>
<path fill="#81B574" opacity="1.000000" stroke="none" 
	d="
M549.017456,389.021912 
	C548.913818,389.056854 548.793640,389.072937 548.818359,389.029541 
	C548.963196,388.970062 549.000977,389.003082 549.017456,389.021912 
z"/>
<path fill="#FBFDFB" opacity="1.000000" stroke="none" 
	d="
M319.682861,868.733032 
	C313.827179,868.712830 309.401825,866.733215 307.439880,861.356201 
	C305.679108,856.530518 306.091370,851.710449 309.839539,847.855103 
	C313.415619,844.176758 317.910431,843.458618 322.757050,844.977478 
	C327.799255,846.557556 331.012939,851.326843 330.839478,856.886536 
	C330.644012,863.150208 327.286163,866.833130 319.682861,868.733032 
z"/>
<path fill="#FCFDFC" opacity="1.000000" stroke="none" 
	d="
M736.674072,848.480164 
	C742.466675,858.755554 737.391296,868.959839 726.966248,868.788879 
	C721.810425,868.704407 717.647888,865.788330 715.912048,861.044861 
	C714.104431,856.105164 715.301270,850.679077 718.937195,847.329163 
	C722.532898,844.016296 728.187256,843.229492 732.858643,845.556458 
	C734.161438,846.205444 735.243896,847.296692 736.674072,848.480164 
z"/>
<path fill="#FBFCFB" opacity="1.000000" stroke="none" 
	d="
M639.173218,845.544067 
	C645.272278,849.821777 647.170776,855.670532 644.675354,861.659363 
	C642.622925,866.585022 637.140869,869.521179 631.666199,868.627075 
	C624.676270,867.485352 620.392883,861.554688 621.531738,854.595093 
	C622.726196,847.296021 628.685303,843.142761 635.970642,844.560120 
	C636.941833,844.749084 637.884399,845.085144 639.173218,845.544067 
z"/>
<path fill="#F8FBF8" opacity="1.000000" stroke="none" 
	d="
M401.192963,874.193970 
	C399.142181,872.655945 396.146240,871.068481 396.221039,869.642029 
	C396.331543,867.533875 398.189758,864.546997 400.084503,863.717468 
	C403.389313,862.270508 407.288940,862.182068 410.916046,861.528442 
	C412.764771,870.920288 410.693542,873.516968 401.192963,874.193970 
z"/>
<path fill="#FAFCFB" opacity="1.000000" stroke="none" 
	d="
M847.466553,867.597290 
	C851.146729,861.293274 856.920166,862.164185 862.393311,861.982361 
	C864.108826,870.012756 863.251953,872.550293 854.948853,874.047791 
	C849.513367,875.028137 847.650696,873.237915 847.466553,867.597290 
z"/>
</svg>