<?xml version="1.0" encoding="UTF-8" standalone="no"?>
<svg
   version="1.1"
   id="Layer_1"
   x="0px"
   y="0px"
   width="800"
   viewBox="0 0 800 800"
   enable-background="new 0 0 980 980"
   xml:space="preserve"
   sodipodi:docname="impactopia logo square high res_adobe_express logo only.svg"
   height="800"
   inkscape:version="1.2.2 (b0a84865, 2022-12-01)"
   xmlns:inkscape="http://www.inkscape.org/namespaces/inkscape"
   xmlns:sodipodi="http://sodipodi.sourceforge.net/DTD/sodipodi-0.dtd"
   xmlns="http://www.w3.org/2000/svg"
   xmlns:svg="http://www.w3.org/2000/svg"><defs
   id="defs59" /><sodipodi:namedview
   id="namedview57"
   pagecolor="#ffffff"
   bordercolor="#000000"
   borderopacity="0.25"
   inkscape:showpageshadow="2"
   inkscape:pageopacity="0.0"
   inkscape:pagecheckerboard="0"
   inkscape:deskcolor="#d1d1d1"
   showgrid="false"
   inkscape:zoom="0.96326531"
   inkscape:cx="229.94703"
   inkscape:cy="495.70975"
   inkscape:window-width="3008"
   inkscape:window-height="1639"
   inkscape:window-x="0"
   inkscape:window-y="25"
   inkscape:window-maximized="1"
   inkscape:current-layer="Layer_1" />





















<g
   id="g175"
   transform="translate(-88.718494,-21.236851)"><path
     fill="#4b7c56"
     opacity="1"
     stroke="none"
     d="m 461.40027,454.91473 c -2.39703,-5.95346 -7.23157,-8.2124 -12.53366,-9.41058 -11.51386,-2.60187 -23.21991,-4.42175 -34.63535,-7.37964 -81.44708,-21.10382 -143.70148,-68.39325 -188.2624,-139.28665 -18.22019,-28.98703 -30.78371,-60.40411 -37.17913,-94.14056 -1.91874,-10.12148 0.9238,-14.14545 11.50843,-14.37803 12.80073,-0.28129 25.70366,-0.17874 38.42849,1.09499 53.10135,5.31529 100.97986,24.22197 143.35932,56.74347 32.72171,25.11024 58.52066,56.17741 78.59793,92.10371 0.85867,1.53653 1.76724,3.04517 3.32025,5.71436 0.21567,-2.61994 0.42276,-3.9888 0.42737,-5.35834 0.13461,-40.15994 0.17645,-80.3204 0.4205,-120.47966 0.0572,-9.39931 -3.55228,-16.06718 -11.78867,-20.88399 -20.0487,-11.72486 -31.14624,-29.26028 -33.46414,-52.53389 -3.55304,-35.67515 24.71271,-70.241793 60.55252,-73.630221 36.64826,-3.464859 68.31073,20.095886 75.38099,56.092661 5.08715,25.90016 -6.64795,53.2055 -29.22547,67.97879 -1.53162,1.00218 -3.07184,1.99878 -4.66272,2.90155 -6.89557,3.91298 -9.92252,9.78396 -9.87125,17.7259 0.17655,27.32915 0.13901,54.65973 0.16858,81.98975 0.016,14.82337 0.003,29.64673 0.77042,44.91232 0.86414,-1.43368 1.74652,-2.85669 2.58978,-4.30252 27.5271,-47.19516 63.22083,-86.42634 111.01795,-113.85589 33.83911,-19.41945 70.21411,-31.00014 109.03015,-34.55516 13.57776,-1.24353 27.26526,-1.29001 40.90308,-1.87278 0.83105,-0.0355 1.66705,-0.003 2.4989,0.037 8.71814,0.41531 10.70471,2.87113 8.77618,11.30324 -1.81659,7.94232 -3.48132,15.94861 -5.86096,23.72853 -33.7583,110.37032 -107.53192,179.94575 -217.42249,212.21721 -12.04614,3.5376 -24.79547,4.85501 -37.30279,6.59857 -12.24237,1.70667 -16.05085,5.69437 -15.26703,18.01526 0.35913,5.64471 1.31952,11.25839 1.52771,16.90381 0.30395,8.24093 -2.35925,11.7948 -10.55826,12.9617 -6.37683,0.90759 -12.92224,0.75516 -19.39517,0.81732 -3.98773,0.0384 -7.97882,-0.43112 -11.97064,-0.62585 -5.20334,-0.25385 -6.57209,-1.68967 -6.85471,-7.06495 -0.39313,-7.47805 -0.7648,-14.95947 -1.34122,-22.42437 -0.18997,-2.4599 -0.9866,-4.87293 -1.68249,-7.65705 m 88.50995,-65.82516 c 15.68518,-1.15201 30.15112,-6.69061 44.12487,-13.24527 39.04548,-18.31522 71.86036,-44.72583 98.82477,-78.31497 12.02826,-14.98349 21.93378,-31.29904 28.02442,-49.6873 0.57361,-1.73182 0.70385,-3.61048 1.32159,-6.93767 -13.63281,4.26376 -26.07483,7.74603 -38.2298,12.04068 -26.30065,9.29266 -50.04718,23.21457 -70.92828,41.68045 -26.60052,23.52368 -46.05878,52.31878 -60.56146,84.57235 -1.4159,3.14884 -2.35999,6.50974 -3.81287,9.89118 0.12018,-0.0161 0.24036,-0.0322 1.23676,5.5e-4 m -124.71506,1.64453 c -0.18836,-1.84308 -0.0149,-3.81522 -0.61923,-5.50995 -9.39359,-26.34354 -23.9289,-49.69598 -42.47513,-70.44336 -24.52838,-27.4396 -53.52237,-48.76645 -88.21167,-61.82632 -13.60361,-5.12149 -27.63504,-8.32825 -43.44148,-9.7475 6.56999,11.65936 12.28248,22.5481 18.68409,33.01541 18.52671,30.29291 42.1673,55.83914 71.42362,76.14438 25.69321,17.83231 53.86905,30.1424 84.6398,38.36734 m 29.93851,-268.97899 c -3.82373,7.61607 -5.36502,15.52431 -4.25357,24.12171 2.31945,17.94194 18.94738,35.00694 41.73373,33.3312 18.37006,-1.35095 34.71075,-18.0794 35.34058,-37.15956 0.59491,-18.02228 -10.56653,-33.66708 -27.75168,-38.89895 -17.06775,-5.196133 -34.68219,1.8818 -45.06906,18.6056 z"
     id="path4" /><path
     fill="#e8b541"
     opacity="1"
     stroke="none"
     d="m 484.49591,769.5404 c -0.78574,-0.10778 -1.11566,-0.18878 -1.44635,-0.19207 -18.8371,-0.18665 -18.50433,-6.81275 -18.61151,-19.29676 -0.36615,-42.65368 0.12537,-85.31457 0.24844,-127.97283 0.009,-2.9845 -0.138,-5.99372 -0.52542,-8.95038 -1.04513,-7.97657 -4.77353,-12.52723 -12.74777,-13.94129 -13.26035,-2.3515 -25.76795,-6.28753 -37.24011,-13.57391 -5.05368,-3.20978 -10.60214,-2.57092 -15.45703,1.10651 -2.51157,1.90246 -4.88175,4.03234 -7.10437,6.26959 -30.06965,30.26678 -60.10206,60.57062 -90.14389,90.86505 -1.29084,1.30176 -2.56583,2.61987 -3.87803,3.89984 -7.27084,7.09247 -11.3757,7.14496 -18.55493,-0.15875 -5.01797,-5.10492 -9.99408,-10.28632 -14.56619,-15.78504 -5.44269,-6.54577 -5.64441,-11.42883 -0.0284,-17.87689 7.65048,-8.78399 15.7886,-17.16412 24.01334,-25.42297 22.10751,-22.1991 44.37658,-44.23725 66.56436,-66.35657 1.53079,-1.52606 3.00564,-3.12518 4.35974,-4.80841 5.06375,-6.29443 5.31799,-11.34308 0.006,-17.50391 -7.552,-8.75921 -14.50262,-17.83648 -18.77981,-28.68832 -1.4014,-3.55551 -2.58863,-7.19696 -3.82486,-10.81583 -3.32446,-9.73144 -8.54044,-14.18832 -18.75659,-14.19412 -37.32511,-0.0212 -74.6503,0.31967 -111.97571,0.46765 -4.14447,0.0164 -8.3064,-0.16144 -12.43097,-0.55557 -3.86464,-0.3692 -6.28787,-3.09747 -6.36872,-6.63828 -0.22386,-9.8049 -0.16755,-19.6383 0.3543,-29.42974 0.31088,-5.83298 4.05,-9.44126 9.94603,-10.11124 5.11059,-0.58072 10.27101,-0.99741 15.41037,-1.00781 46.16556,-0.0936 92.33133,-0.0832 138.49704,-0.0972 4.14923,-10e-4 8.3053,-0.10098 12.44592,0.0992 5.25913,0.25424 8.12238,3.41449 9.11817,8.37125 1.73382,8.6307 2.73138,17.46692 5.17071,25.88876 12.97977,44.8132 52.32822,78.43466 97.94696,82.60446 43.90415,4.01313 78.8671,-13.3623 105.76718,-47.66589 12.34473,-15.74222 18.58966,-34.0268 21.13666,-53.70004 0.29907,-2.30988 0.591,-4.62763 1.05261,-6.90808 1.15613,-5.71213 4.06494,-8.2388 9.9538,-8.6222 2.49072,-0.1622 4.99658,-0.12243 7.49561,-0.12246 46.66577,-8.9e-4 93.33154,0.002 139.99731,0.0156 6.48334,0.002 12.96997,-0.0535 19.44897,0.13083 5.42804,0.15445 9.138,3.04208 9.24073,8.51709 0.20886,11.12976 0.0223,22.28067 -0.46576,33.40247 -0.17523,3.9916 -3.56061,5.27508 -7.28852,5.24536 -7.66595,-0.0612 -15.33184,-0.16037 -22.99786,-0.1702 -32.66553,-0.0419 -65.33106,-0.0331 -97.99652,-0.0935 -12.89624,-0.0238 -17.08698,2.80911 -21.36542,15.09304 -5.09241,14.62097 -12.16015,28.03736 -22.71484,39.55713 -6.36615,6.94824 -5.87262,11.42591 1.60089,18.8573 28.36261,28.2027 56.77698,56.35352 85.17255,84.52313 3.43121,3.40394 6.95489,6.71991 10.27923,10.22516 6.0368,6.36524 6.31781,11.11078 0.24316,17.35639 -5.79278,5.95587 -11.95129,11.61847 -18.39947,16.85522 -5.38355,4.37213 -9.97162,4.08655 -15.44464,-0.18646 -3.53455,-2.75964 -6.85761,-5.83118 -10.02777,-9.00995 -28.95105,-29.02869 -57.84668,-58.11273 -86.76325,-87.17578 -1.52746,-1.53516 -3.01764,-3.12225 -4.66504,-4.52039 -5.61859,-4.76855 -9.26135,-4.94201 -15.99304,-1.80963 -8.11493,3.77588 -16.38928,7.21442 -24.64764,10.67243 -1.49512,0.62603 -3.23926,0.6828 -4.87885,0.93426 -18.25,2.79846 -22.65741,9.24304 -22.57321,27.76386 0.0341,7.49176 0.64261,14.9812 0.66202,22.47253 0.0928,35.8324 0.0859,71.66516 0.086,107.49774 0,10.94257 -2.73221,13.97589 -13.60785,14.71106 -4.47754,0.30268 -8.99384,0.0322 -13.948,-0.0405 z"
     id="path6" /><path
     fill="#4c7c56"
     opacity="1"
     stroke="none"
     d="m 603.11993,659.91882 c 12.69697,17.37378 13.17383,35.83265 5.70234,54.77356 -4.30878,10.92316 -12.14405,14.66797 -23.32508,11.21985 -26.84088,-8.27771 -49.63165,-33.98584 -36.76959,-71.10504 4.32684,-12.48706 15.42999,-17.76172 28.07977,-13.7627 10.62805,3.35999 18.97058,10.18439 26.31256,18.87433 z"
     id="path16" /><path
     fill="#4c7c56"
     opacity="1"
     stroke="none"
     d="m 389.21109,646.13989 c 3.91022,-1.86285 7.371,-3.99975 11.13428,-5.12567 12.96972,-3.88037 24.38113,1.85358 28.52728,14.66974 11.97006,37.00079 -11.48496,62.94147 -38.06177,70.42358 -10.50741,2.9582 -17.20392,-0.30462 -21.93622,-10.28253 -7.75839,-16.35834 -9.82937,-44.57751 12.20191,-63.31817 2.52929,-2.15155 5.21216,-4.12275 8.13452,-6.36695 z"
     id="path18" /><path
     fill="#4c7c56"
     opacity="1"
     stroke="none"
     d="m 256.80438,518.83069 c 11.18247,-0.89221 21.75598,-0.0576 31.3945,5.12823 8.64691,4.65229 12.64005,15.06214 8.8935,25.1062 -9.76517,26.1792 -30.27051,39.42365 -57.27144,36.40741 -6.01224,-0.67163 -12.12726,-2.35418 -17.68404,-4.75421 -10.33908,-4.46545 -13.94685,-12.10504 -10.37414,-22.76379 7.21267,-21.51837 21.33729,-35.63977 45.04162,-39.12384 z"
     id="path20" /><path
     fill="#4c7c56"
     opacity="1"
     stroke="none"
     d="m 721.71985,585.51855 c -21.1922,-4.42468 -34.61731,-17.25158 -41.50311,-36.81188 -4.00123,-11.36622 1.23706,-22.2591 12.38995,-26.45765 28.55908,-10.75103 66.15155,1.58417 73.02362,38.88379 1.44031,7.81769 -1.09082,13.62073 -7.9563,17.80561 -10.98242,6.69439 -22.93909,8.42932 -35.95416,6.58013 z"
     id="path24" /><path
     fill="#81b574"
     opacity="1"
     stroke="none"
     d="m 548.9632,388.97006 c 1.16314,-3.26248 2.10723,-6.62338 3.52313,-9.77222 14.50268,-32.25357 33.96094,-61.04867 60.56146,-84.57235 20.8811,-18.46588 44.62763,-32.38779 70.92828,-41.68045 12.15497,-4.29465 24.59699,-7.77692 38.2298,-12.04068 -0.61774,3.32719 -0.74798,5.20585 -1.32159,6.93767 -6.09064,18.38826 -15.99616,34.70381 -28.02442,49.6873 -26.96441,33.58914 -59.77929,59.99975 -98.82477,78.31497 -13.97375,6.55466 -28.43969,12.09326 -44.57952,13.20203 -0.45459,-0.0433 -0.49237,-0.0763 -0.49237,-0.0763 z"
     id="path38" /><path
     fill="#81b574"
     opacity="1"
     stroke="none"
     d="m 424.81634,390.80365 c -30.39193,-8.29449 -58.56777,-20.60458 -84.26098,-38.43689 -29.25632,-20.30524 -52.89691,-45.85147 -71.42362,-76.14438 -6.40161,-10.46731 -12.1141,-21.35605 -18.68409,-33.01541 15.80644,1.41925 29.83787,4.62601 43.44148,9.7475 34.6893,13.05987 63.68329,34.38672 88.21167,61.82632 18.54623,20.74738 33.08154,44.09982 42.47513,70.44336 0.60434,1.69473 0.43087,3.66687 0.24041,5.5795 z"
     id="path40" /><path
     fill="#e7b540"
     opacity="1"
     stroke="none"
     d="m 455.31799,121.4332 c 10.20255,-16.40189 27.81699,-23.479823 44.88474,-18.28369 17.18515,5.23187 28.34659,20.87667 27.75168,38.89895 -0.62983,19.08016 -16.97052,35.80861 -35.34058,37.15956 -22.78635,1.67574 -39.41428,-15.38926 -41.73373,-33.3312 -1.11145,-8.5974 0.42984,-16.50564 4.43789,-24.44362 z"
     id="path42" /><path
     fill="#81b574"
     opacity="1"
     stroke="none"
     d="m 549.01746,389.02191 c -0.10364,0.0349 -0.22382,0.051 -0.1991,0.008 0.14484,-0.0595 0.18262,-0.0265 0.1991,-0.008 z"
     id="path44" /></g>





</svg>
