<?xml version="1.0" encoding="UTF-8" standalone="no"?>
<svg
   version="1.1"
   id="Layer_1"
   x="0px"
   y="0px"
   width="800"
   viewBox="0 0 800 150"
   enable-background="new 0 0 980 980"
   xml:space="preserve"
   sodipodi:docname="impactopia logo square high res_adobe_express text.svg"
   height="150"
   inkscape:version="1.2.2 (b0a84865, 2022-12-01)"
   xmlns:inkscape="http://www.inkscape.org/namespaces/inkscape"
   xmlns:sodipodi="http://sodipodi.sourceforge.net/DTD/sodipodi-0.dtd"
   xmlns="http://www.w3.org/2000/svg"
   xmlns:svg="http://www.w3.org/2000/svg"><defs
   id="defs59" /><sodipodi:namedview
   id="namedview57"
   pagecolor="#ffffff"
   bordercolor="#000000"
   borderopacity="0.25"
   inkscape:showpageshadow="2"
   inkscape:pageopacity="0.0"
   inkscape:pagecheckerboard="0"
   inkscape:deskcolor="#d1d1d1"
   showgrid="false"
   inkscape:zoom="0.68113143"
   inkscape:cx="563.03377"
   inkscape:cy="47.714727"
   inkscape:window-width="3008"
   inkscape:window-height="1639"
   inkscape:window-x="0"
   inkscape:window-y="25"
   inkscape:window-maximized="1"
   inkscape:current-layer="Layer_1" />


























<g
   id="g235"
   transform="translate(-75.778766,-12.263533)"><path
     fill="#5c9b67"
     opacity="1"
     stroke="none"
     d="m 155.1053,121.0507 c 8e-5,2.80468 8e-5,5.1167 8e-5,7.77496 -9.72087,0 -19.12711,0 -28.91149,0 0,-24.63904 0,-49.362122 0,-74.495912 9.39715,0 18.92563,0 28.66019,0 0.14458,2.01404 0.28287,3.94031 0.48934,6.81641 5.30345,-6.4964 11.59687,-9.39905 19.40025,-9.10553 7.7261,0.29052 14.28958,2.80194 19.45747,9.22931 7.85535,-7.85053 17.36348,-10.49634 27.92732,-8.81244 12.3612,1.97046 20.06305,9.95489 21.05884,24.815 1.14133,17.03186 0.26462,34.199042 0.26462,51.606202 -9.65842,0 -19.20953,0 -29.30881,0 0,-8.84021 0.002,-17.45758 -7.3e-4,-26.07495 -0.001,-4.663822 0.0839,-9.330082 -0.0409,-13.990722 -0.14186,-5.29596 -2.40709,-7.70313 -7.03567,-7.79615 -4.87241,-0.0978 -7.44177,2.357 -7.51218,7.85212 -0.1472,11.491152 -0.0562,22.985472 -0.0626,34.478452 -0.001,1.7948 -1.3e-4,3.5896 -1.3e-4,5.60059 -10.00232,0 -19.44158,0 -29.57637,0 0,-3.46552 1.9e-4,-6.89508 -3e-5,-10.32471 -6.1e-4,-9.66083 0.0468,-19.321962 -0.0198,-28.982362 -0.0413,-5.9867 -2.34273,-8.61426 -7.2804,-8.62531 -4.83642,-0.0107 -7.38806,2.70728 -7.46449,8.56147 -0.1348,10.32543 -0.042,20.653742 -0.0444,31.473572 z"
     id="path8" /><path
     fill="#5d9b68"
     opacity="1"
     stroke="none"
     d="m 288.67406,57.857338 c 16.98935,-11.65759 39.50296,-5.26227 48.08804,13.61548 6.03385,13.26794 6.05042,26.8374 0.0534,40.127682 -8.43122,18.6847 -29.91379,25.11176 -47.39786,14.45044 -0.65061,-0.39673 -1.36051,-0.69623 -2.74469,-1.39575 0,11.38202 0,22.09985 0,33.08618 -9.96478,0 -19.39435,0 -29.24658,0 0,-34.2937 0,-68.646912 0,-103.412292 9.41565,0 18.95828,0 28.05526,0 1.05805,1.36841 1.98005,2.56085 3.19248,3.52826 m 12.31549,45.931582 c 7.21072,-1.85956 10.56857,-5.542482 10.76404,-11.806152 0.17346,-5.5597 -3.04022,-10.32898 -8.08243,-11.90906 -4.84662,-1.51886 -9.34143,-0.80072 -12.91751,2.87762 -3.74817,3.85535 -4.16043,8.67542 -2.39966,13.5011 1.96194,5.377012 6.3873,7.356632 12.63556,7.336492 z"
     id="path10" /><path
     fill="#5c9b67"
     opacity="1"
     stroke="none"
     d="m 665.77513,78.096228 c -6e-5,-8.14417 -6e-5,-15.78827 -6e-5,-23.80225 9.71674,0 19.11975,0 28.94751,0 0.15979,1.27472 0.33679,2.6875 0.51569,4.11481 0.30267,0.0388 0.71045,0.22833 0.91803,0.0983 22.4237,-14.04224 47.24652,-3.32446 52.54992,22.75567 2.26246,11.12617 1.20447,21.949292 -4.09784,32.059152 -9.23883,17.61542 -30.18884,23.08313 -46.97088,12.46667 -0.65253,-0.41284 -1.33038,-0.78576 -2.67346,-1.57531 0,11.58044 0,22.46374 0,33.56915 -9.77094,0 -19.04694,0 -29.18885,0 0,-26.38904 0,-52.78766 -6e-5,-79.686222 m 51.56635,5.18512 c -1.18347,-0.88843 -2.26593,-1.97968 -3.56873,-2.62866 -4.67138,-2.32697 -10.32574,-1.54016 -13.92145,1.7727 -3.63592,3.34992 -4.83276,8.776 -3.02514,13.7157 1.73584,4.743472 5.89837,7.659552 11.0542,7.744022 10.42505,0.17096 15.50042,-10.033332 9.46112,-20.603762 z"
     id="path12" /><path
     fill="#5c9b67"
     opacity="1"
     stroke="none"
     d="m 578.5457,112.37687 c -8.10187,-15.111822 -8.14233,-29.919072 1.5268,-43.703062 9.89618,-14.10761 24.61688,-18.29358 41.01269,-16.09204 16.31415,2.19048 28.1369,10.83184 33.15393,27.08727 7.77149,25.179752 -9.45215,49.809272 -35.8725,51.340032 -16.38848,0.94953 -30.17773,-4.07349 -39.82092,-18.6322 m 41.20862,-31.927552 c -0.95581,-0.26795 -1.89838,-0.60401 -2.86957,-0.79297 -7.28534,-1.41736 -13.24444,2.7359 -14.4389,10.03497 -1.13886,6.9596 3.14453,12.890262 10.13446,14.031982 5.47467,0.89411 10.95672,-2.04205 13.00915,-6.967712 2.49543,-5.98883 0.59693,-11.83758 -5.83514,-16.30627 z"
     id="path14" /><path
     fill="#5c9b67"
     opacity="1"
     stroke="none"
     d="m 365.42009,86.441688 c 8.9036,-1.29157 17.43478,-2.43848 26.15646,-3.61102 0.754,-4.67658 -1.86105,-8.42225 -7.51629,-8.44098 -4.02676,-0.0134 -8.03534,1.66009 -12.09863,2.27069 -1.83048,0.27502 -4.14347,0.41205 -5.59958,-0.45709 -4.84739,-2.89325 -9.40567,-6.27094 -14.50724,-9.75861 4.4924,-5.4455 10.12699,-8.80359 16.32264,-11.1203 10.7528,-4.02081 21.77743,-4.47913 32.86438,-1.37482 12.28524,3.43994 20.11645,12.03394 20.59018,24.61908 0.62545,16.6164 0.15383,33.274172 0.15383,50.261902 -9.72079,0 -19.27056,0 -29.01956,0 -0.28595,-1.59558 -0.56356,-3.14453 -0.94543,-5.2752 -7.83569,6.51397 -16.31931,8.95849 -25.88883,6.92199 -11.612,-2.47125 -17.61392,-8.54065 -18.82431,-19.00732 -1.19729,-10.35321 4.15931,-18.974732 14.68811,-23.610842 1.06436,-0.46869 2.167,-0.85053 3.62427,-1.41748 m 17.1153,22.871092 c 9.07226,-0.69958 11.14349,-3.29626 9.29477,-12.688112 -3.62711,0.65363 -7.52674,0.74207 -10.83155,2.18903 -1.89474,0.82953 -3.75296,3.816402 -3.86346,5.924562 -0.0748,1.42645 2.92114,3.01391 5.40024,4.57452 z"
     id="path22" /><path
     fill="#5c9b67"
     opacity="1"
     stroke="none"
     d="m 811.59551,88.623818 c 10.24695,-5.03174 20.94995,-4.8949 31.58129,-4.83435 0.47999,-5.66889 -2.1029,-9.28699 -7.60345,-9.38739 -3.87042,-0.0707 -7.97137,0.79864 -11.5849,2.22345 -2.65222,1.04583 -4.37823,1.21942 -6.67633,-0.49463 -4.39331,-3.27704 -9.00946,-6.25525 -14.4386,-9.97846 3.53504,-2.70215 6.40729,-5.40149 9.72309,-7.34344 13.10418,-7.67499 27.12976,-8.73731 41.44903,-4.40344 11.69391,3.53924 18.69251,12.65185 18.9563,24.82586 0.35644,16.44757 0.0886,32.908692 0.0886,49.653992 -9.7608,0 -19.18322,0 -28.98388,0 -0.12403,-1.74475 -0.24665,-3.4693 -0.41187,-5.79266 -7.90832,6.94226 -16.62103,9.49585 -26.56036,7.30792 -10.52478,-2.31677 -16.88642,-8.12817 -18.20154,-16.71606 -1.74805,-11.41516 2.12128,-19.209602 12.6626,-25.060792 m 16.64727,14.427792 c 0.32203,5.28254 2.1847,7.07276 7.62018,6.09241 8.3031,-1.4975 9.15998,-4.03503 7.44446,-12.065432 -5.47314,0.18182 -11.24658,-0.68909 -15.06464,5.973022 z"
     id="path26" /><path
     fill="#5d9b67"
     opacity="1"
     stroke="none"
     d="m 434.01814,77.397988 c 6.60367,-16.02606 18.85297,-23.84174 35.23133,-25.15113 15.97439,-1.2771 29.36368,4.03412 39.60055,17.99506 -8.35522,5.18036 -16.32977,10.1247 -24.26333,15.0437 -6.90512,-7.3114 -14.99704,-7.83636 -20.67588,-1.91168 -4.43927,4.63147 -3.98651,12.83386 0.64777,17.214782 5.41171,5.11579 12.99637,4.20233 19.77228,-2.759092 7.90594,4.816532 15.92816,9.703922 23.90936,14.566282 -7.17395,15.76618 -32.1589,23.2807 -51.59427,15.84509 -20.30197,-7.76715 -29.70563,-28.637262 -22.62781,-50.843012 z"
     id="path28" /><path
     fill="#5d9c68"
     opacity="1"
     stroke="none"
     d="m 511.80693,64.118018 c 0,-3.47223 0,-6.44971 0,-9.98279 2.9906,-0.13141 5.71997,-0.25134 8.94531,-0.39307 0,-5.05322 0,-9.95733 0,-15.26696 10.04773,0 19.60486,0 29.86438,0 0,4.87634 0,9.91259 0,15.46466 5.25995,0 9.84003,0 14.65369,0 0,8.60504 0,16.67248 0,25.20007 -4.87866,0 -9.47241,0 -14.42334,0 0,6.22858 -0.23462,12.01532 0.0821,17.77185 0.21259,3.864562 3.02741,5.805242 6.71344,6.161752 2.44208,0.2362 4.92554,0.0449 7.9162,0.0449 0,8.09613 0.11676,15.88909 -0.13373,23.67022 -0.035,1.08844 -1.85455,3.01099 -2.87878,3.03174 -6.76239,0.13727 -13.75458,0.89325 -20.25501,-0.49878 -13.32781,-2.85388 -20.79333,-14.08893 -21.22033,-30.065002 -0.17304,-6.47272 -0.0286,-12.95398 -0.0286,-19.91834 -3.01733,0 -5.75549,0 -9.23523,0 0,-5.22216 0,-9.97387 -6e-5,-15.22021 z"
     id="path30" /><path
     fill="#5e9c68"
     opacity="1"
     stroke="none"
     d="m 111.74819,30.270118 c 3e-5,33.06341 3e-5,65.64545 3e-5,98.569522 -11.29019,0 -22.170591,0 -33.377797,0 0,-34.404422 0,-68.752812 0,-103.425542 10.964306,0 21.848827,0 33.094757,0 0.0962,1.48737 0.18959,2.93097 0.28301,4.85602 z"
     id="path32" /><path
     fill="#5e9c69"
     opacity="1"
     stroke="none"
     d="m 788.89098,75.096348 c 0,18.11871 0,35.737432 0,53.721442 -9.84467,0 -19.39905,0 -29.29096,0 0,-24.69446 0,-49.408392 0,-74.513922 9.59626,0 19.1294,0 29.29096,0 0,6.7583 0,13.52539 0,20.79248 z"
     id="path34" /><path
     fill="#e8b643"
     opacity="1"
     stroke="none"
     d="m 789.81828,29.557048 c 0.16492,10.30816 -4.63775,16.55126 -13.32769,17.7984 -7.42749,1.06591 -14.64704,-3.81574 -16.58649,-11.21534 -2.05536,-7.84167 2.08264,-15.85553 9.55322,-18.50128 7.56183,-2.6781 15.82593,0.83368 19.20679,8.20557 0.48083,1.04846 0.74445,2.19647 1.15417,3.71265 z"
     id="path36" /><path
     fill="#fbfdfb"
     opacity="1"
     stroke="none"
     d="m 300.59697,103.82926 c -5.85568,-0.0202 -10.28104,-1.99982 -12.24298,-7.376832 -1.76077,-4.82568 -1.34851,-9.64575 2.39966,-13.5011 3.57608,-3.67834 8.07089,-4.39648 12.91751,-2.87762 5.04221,1.58008 8.25589,6.34936 8.08243,11.90906 -0.19547,6.26367 -3.55332,9.946592 -11.15662,11.846492 z"
     id="path46" /><path
     fill="#fcfdfc"
     opacity="1"
     stroke="none"
     d="m 717.58818,83.576388 c 5.7926,10.27539 0.71723,20.479682 -9.70782,20.308722 -5.15583,-0.0845 -9.31836,-3.00055 -11.0542,-7.744022 -1.80762,-4.9397 -0.61078,-10.36578 3.02514,-13.7157 3.59571,-3.31286 9.25007,-4.09967 13.92145,-1.7727 1.3028,0.64898 2.38526,1.74023 3.81543,2.9237 z"
     id="path48" /><path
     fill="#fbfcfb"
     opacity="1"
     stroke="none"
     d="m 620.08733,80.640298 c 6.09906,4.27771 7.99756,10.12646 5.50213,16.11529 -2.05243,4.925662 -7.53448,7.861822 -13.00915,6.967712 -6.98993,-1.14172 -11.27332,-7.072382 -10.13446,-14.031982 1.19446,-7.29907 7.15356,-11.45233 14.4389,-10.03497 0.97119,0.18896 1.91376,0.52502 3.20258,0.98395 z"
     id="path50" /><path
     fill="#f8fbf8"
     opacity="1"
     stroke="none"
     d="m 382.10707,109.2902 c -2.05078,-1.53803 -5.04672,-3.12549 -4.97192,-4.55194 0.1105,-2.10816 1.96872,-5.095032 3.86346,-5.924562 3.30481,-1.44696 7.20444,-1.5354 10.83155,-2.18903 1.84872,9.391852 -0.22251,11.988532 -9.72309,12.665532 z"
     id="path52" /><path
     fill="#fafcfb"
     opacity="1"
     stroke="none"
     d="m 828.38066,102.69352 c 3.68018,-6.304022 9.45362,-5.433112 14.92676,-5.614932 1.71552,8.030402 0.85864,10.567932 -7.44446,12.065432 -5.43548,0.98035 -7.29815,-0.80987 -7.4823,-6.4505 z"
     id="path54" /></g>
</svg>
