<?xml version="1.0" encoding="UTF-8" standalone="no"?>
<svg
   version="1.1"
   id="Layer_1"
   x="0px"
   y="0px"
   width="100%"
   viewBox="0 0 980 980"
   enable-background="new 0 0 980 980"
   xml:space="preserve"
   sodipodi:docname="impactopia logo square high res_adobe_express full logo no background.svg"
   inkscape:version="1.2.2 (b0a84865, 2022-12-01)"
   xmlns:inkscape="http://www.inkscape.org/namespaces/inkscape"
   xmlns:sodipodi="http://sodipodi.sourceforge.net/DTD/sodipodi-0.dtd"
   xmlns="http://www.w3.org/2000/svg"
   xmlns:svg="http://www.w3.org/2000/svg"><defs
   id="defs59" /><sodipodi:namedview
   id="namedview57"
   pagecolor="#ffffff"
   bordercolor="#000000"
   borderopacity="0.25"
   inkscape:showpageshadow="2"
   inkscape:pageopacity="0"
   inkscape:pagecheckerboard="0"
   inkscape:deskcolor="#d1d1d1"
   showgrid="false"
   inkscape:zoom="0.48163266"
   inkscape:cx="459.89406"
   inkscape:cy="629.11016"
   inkscape:window-width="1512"
   inkscape:window-height="916"
   inkscape:window-x="0"
   inkscape:window-y="38"
   inkscape:window-maximized="0"
   inkscape:current-layer="Layer_1" />





















<g
   id="g828"
   transform="translate(-4.8646618,-7.7193897)"><path
     fill="#4b7c56"
     opacity="1"
     stroke="none"
     d="m 461.40027,454.91473 c -2.39703,-5.95346 -7.23157,-8.2124 -12.53366,-9.41058 -11.51386,-2.60187 -23.21991,-4.42175 -34.63535,-7.37964 -81.44708,-21.10382 -143.70148,-68.39325 -188.2624,-139.28665 -18.22019,-28.98703 -30.78371,-60.40411 -37.17913,-94.14056 -1.91874,-10.12148 0.9238,-14.14545 11.50843,-14.37803 12.80073,-0.28129 25.70366,-0.17874 38.42849,1.09499 53.10135,5.31529 100.97986,24.22197 143.35932,56.74347 32.72171,25.11024 58.52066,56.17741 78.59793,92.10371 0.85867,1.53653 1.76724,3.04517 3.32025,5.71436 0.21567,-2.61994 0.42276,-3.9888 0.42737,-5.35834 0.13461,-40.15994 0.17645,-80.3204 0.4205,-120.47966 0.0572,-9.39931 -3.55228,-16.06718 -11.78867,-20.88399 -20.0487,-11.72486 -31.14624,-29.26028 -33.46414,-52.53389 -3.55304,-35.67515 24.71271,-70.241793 60.55252,-73.630221 36.64826,-3.464859 68.31073,20.095886 75.38099,56.092661 5.08715,25.90016 -6.64795,53.2055 -29.22547,67.97879 -1.53162,1.00218 -3.07184,1.99878 -4.66272,2.90155 -6.89557,3.91298 -9.92252,9.78396 -9.87125,17.7259 0.17655,27.32915 0.13901,54.65973 0.16858,81.98975 0.016,14.82337 0.003,29.64673 0.77042,44.91232 0.86414,-1.43368 1.74652,-2.85669 2.58978,-4.30252 27.5271,-47.19516 63.22083,-86.42634 111.01795,-113.85589 33.83911,-19.41945 70.21411,-31.00014 109.03015,-34.55516 13.57776,-1.24353 27.26526,-1.29001 40.90308,-1.87278 0.83105,-0.0355 1.66705,-0.003 2.4989,0.037 8.71814,0.41531 10.70471,2.87113 8.77618,11.30324 -1.81659,7.94232 -3.48132,15.94861 -5.86096,23.72853 -33.7583,110.37032 -107.53192,179.94575 -217.42249,212.21721 -12.04614,3.5376 -24.79547,4.85501 -37.30279,6.59857 -12.24237,1.70667 -16.05085,5.69437 -15.26703,18.01526 0.35913,5.64471 1.31952,11.25839 1.52771,16.90381 0.30395,8.24093 -2.35925,11.7948 -10.55826,12.9617 -6.37683,0.90759 -12.92224,0.75516 -19.39517,0.81732 -3.98773,0.0384 -7.97882,-0.43112 -11.97064,-0.62585 -5.20334,-0.25385 -6.57209,-1.68967 -6.85471,-7.06495 -0.39313,-7.47805 -0.7648,-14.95947 -1.34122,-22.42437 -0.18997,-2.4599 -0.9866,-4.87293 -1.68249,-7.65705 m 88.50995,-65.82516 c 15.68518,-1.15201 30.15112,-6.69061 44.12487,-13.24527 39.04548,-18.31522 71.86036,-44.72583 98.82477,-78.31497 12.02826,-14.98349 21.93378,-31.29904 28.02442,-49.6873 0.57361,-1.73182 0.70385,-3.61048 1.32159,-6.93767 -13.63281,4.26376 -26.07483,7.74603 -38.2298,12.04068 -26.30065,9.29266 -50.04718,23.21457 -70.92828,41.68045 -26.60052,23.52368 -46.05878,52.31878 -60.56146,84.57235 -1.4159,3.14884 -2.35999,6.50974 -3.81287,9.89118 0.12018,-0.0161 0.24036,-0.0322 1.23676,5.5e-4 m -124.71506,1.64453 c -0.18836,-1.84308 -0.0149,-3.81522 -0.61923,-5.50995 -9.39359,-26.34354 -23.9289,-49.69598 -42.47513,-70.44336 -24.52838,-27.4396 -53.52237,-48.76645 -88.21167,-61.82632 -13.60361,-5.12149 -27.63504,-8.32825 -43.44148,-9.7475 6.56999,11.65936 12.28248,22.5481 18.68409,33.01541 18.52671,30.29291 42.1673,55.83914 71.42362,76.14438 25.69321,17.83231 53.86905,30.1424 84.6398,38.36734 m 29.93851,-268.97899 c -3.82373,7.61607 -5.36502,15.52431 -4.25357,24.12171 2.31945,17.94194 18.94738,35.00694 41.73373,33.3312 18.37006,-1.35095 34.71075,-18.0794 35.34058,-37.15956 0.59491,-18.02228 -10.56653,-33.66708 -27.75168,-38.89895 -17.06775,-5.196133 -34.68219,1.8818 -45.06906,18.6056 z"
     id="path4" /><path
     fill="#e8b541"
     opacity="1"
     stroke="none"
     d="m 484.49591,769.5404 c -0.78574,-0.10778 -1.11566,-0.18878 -1.44635,-0.19207 -18.8371,-0.18665 -18.50433,-6.81275 -18.61151,-19.29676 -0.36615,-42.65368 0.12537,-85.31457 0.24844,-127.97283 0.009,-2.9845 -0.138,-5.99372 -0.52542,-8.95038 -1.04513,-7.97657 -4.77353,-12.52723 -12.74777,-13.94129 -13.26035,-2.3515 -25.76795,-6.28753 -37.24011,-13.57391 -5.05368,-3.20978 -10.60214,-2.57092 -15.45703,1.10651 -2.51157,1.90246 -4.88175,4.03234 -7.10437,6.26959 -30.06965,30.26678 -60.10206,60.57062 -90.14389,90.86505 -1.29084,1.30176 -2.56583,2.61987 -3.87803,3.89984 -7.27084,7.09247 -11.3757,7.14496 -18.55493,-0.15875 -5.01797,-5.10492 -9.99408,-10.28632 -14.56619,-15.78504 -5.44269,-6.54577 -5.64441,-11.42883 -0.0284,-17.87689 7.65048,-8.78399 15.7886,-17.16412 24.01334,-25.42297 22.10751,-22.1991 44.37658,-44.23725 66.56436,-66.35657 1.53079,-1.52606 3.00564,-3.12518 4.35974,-4.80841 5.06375,-6.29443 5.31799,-11.34308 0.006,-17.50391 -7.552,-8.75921 -14.50262,-17.83648 -18.77981,-28.68832 -1.4014,-3.55551 -2.58863,-7.19696 -3.82486,-10.81583 -3.32446,-9.73144 -8.54044,-14.18832 -18.75659,-14.19412 -37.32511,-0.0212 -74.6503,0.31967 -111.97571,0.46765 -4.14447,0.0164 -8.3064,-0.16144 -12.43097,-0.55557 -3.86464,-0.3692 -6.28787,-3.09747 -6.36872,-6.63828 -0.22386,-9.8049 -0.16755,-19.6383 0.3543,-29.42974 0.31088,-5.83298 4.05,-9.44126 9.94603,-10.11124 5.11059,-0.58072 10.27101,-0.99741 15.41037,-1.00781 46.16556,-0.0936 92.33133,-0.0832 138.49704,-0.0972 4.14923,-10e-4 8.3053,-0.10098 12.44592,0.0992 5.25913,0.25424 8.12238,3.41449 9.11817,8.37125 1.73382,8.6307 2.73138,17.46692 5.17071,25.88876 12.97977,44.8132 52.32822,78.43466 97.94696,82.60446 43.90415,4.01313 78.8671,-13.3623 105.76718,-47.66589 12.34473,-15.74222 18.58966,-34.0268 21.13666,-53.70004 0.29907,-2.30988 0.591,-4.62763 1.05261,-6.90808 1.15613,-5.71213 4.06494,-8.2388 9.9538,-8.6222 2.49072,-0.1622 4.99658,-0.12243 7.49561,-0.12246 46.66577,-8.9e-4 93.33154,0.002 139.99731,0.0156 6.48334,0.002 12.96997,-0.0535 19.44897,0.13083 5.42804,0.15445 9.138,3.04208 9.24073,8.51709 0.20886,11.12976 0.0223,22.28067 -0.46576,33.40247 -0.17523,3.9916 -3.56061,5.27508 -7.28852,5.24536 -7.66595,-0.0612 -15.33184,-0.16037 -22.99786,-0.1702 -32.66553,-0.0419 -65.33106,-0.0331 -97.99652,-0.0935 -12.89624,-0.0238 -17.08698,2.80911 -21.36542,15.09304 -5.09241,14.62097 -12.16015,28.03736 -22.71484,39.55713 -6.36615,6.94824 -5.87262,11.42591 1.60089,18.8573 28.36261,28.2027 56.77698,56.35352 85.17255,84.52313 3.43121,3.40394 6.95489,6.71991 10.27923,10.22516 6.0368,6.36524 6.31781,11.11078 0.24316,17.35639 -5.79278,5.95587 -11.95129,11.61847 -18.39947,16.85522 -5.38355,4.37213 -9.97162,4.08655 -15.44464,-0.18646 -3.53455,-2.75964 -6.85761,-5.83118 -10.02777,-9.00995 -28.95105,-29.02869 -57.84668,-58.11273 -86.76325,-87.17578 -1.52746,-1.53516 -3.01764,-3.12225 -4.66504,-4.52039 -5.61859,-4.76855 -9.26135,-4.94201 -15.99304,-1.80963 -8.11493,3.77588 -16.38928,7.21442 -24.64764,10.67243 -1.49512,0.62603 -3.23926,0.6828 -4.87885,0.93426 -18.25,2.79846 -22.65741,9.24304 -22.57321,27.76386 0.0341,7.49176 0.64261,14.9812 0.66202,22.47253 0.0928,35.8324 0.0859,71.66516 0.086,107.49774 0,10.94257 -2.73221,13.97589 -13.60785,14.71106 -4.47754,0.30268 -8.99384,0.0322 -13.948,-0.0405 z"
     id="path6" /><path
     fill="#5c9b67"
     opacity="1"
     stroke="none"
     d="m 174.19119,885.95447 c 8e-5,2.80468 8e-5,5.1167 8e-5,7.77496 -9.72087,0 -19.12711,0 -28.91149,0 0,-24.63904 0,-49.36212 0,-74.49591 9.39715,0 18.92563,0 28.66019,0 0.14458,2.01404 0.28287,3.94031 0.48934,6.81641 5.30345,-6.4964 11.59687,-9.39905 19.40025,-9.10553 7.7261,0.29052 14.28958,2.80194 19.45747,9.22931 7.85535,-7.85053 17.36348,-10.49634 27.92732,-8.81244 12.3612,1.97046 20.06305,9.95489 21.05884,24.815 1.14133,17.03186 0.26462,34.19904 0.26462,51.6062 -9.65842,0 -19.20953,0 -29.30881,0 0,-8.84021 0.002,-17.45758 -7.3e-4,-26.07495 -0.001,-4.66382 0.0839,-9.33008 -0.0409,-13.99072 -0.14186,-5.29596 -2.40709,-7.70313 -7.03567,-7.79615 -4.87241,-0.0978 -7.44177,2.357 -7.51218,7.85212 -0.1472,11.49115 -0.0562,22.98547 -0.0626,34.47845 -0.001,1.7948 -1.3e-4,3.5896 -1.3e-4,5.60059 -10.00232,0 -19.44158,0 -29.57637,0 0,-3.46552 1.9e-4,-6.89508 -3e-5,-10.32471 -6.1e-4,-9.66083 0.0468,-19.32196 -0.0198,-28.98236 -0.0413,-5.9867 -2.34273,-8.61426 -7.2804,-8.62531 -4.83642,-0.0107 -7.38806,2.70728 -7.46449,8.56147 -0.1348,10.32543 -0.042,20.65374 -0.0444,31.47357 z"
     id="path8" /><path
     fill="#5d9b68"
     opacity="1"
     stroke="none"
     d="m 307.75995,822.76111 c 16.98935,-11.65759 39.50296,-5.26227 48.08804,13.61548 6.03385,13.26794 6.05042,26.8374 0.0534,40.12768 -8.43122,18.6847 -29.91379,25.11176 -47.39786,14.45044 -0.65061,-0.39673 -1.36051,-0.69623 -2.74469,-1.39575 0,11.38202 0,22.09985 0,33.08618 -9.96478,0 -19.39435,0 -29.24658,0 0,-34.2937 0,-68.64691 0,-103.41229 9.41565,0 18.95828,0 28.05526,0 1.05805,1.36841 1.98005,2.56085 3.19248,3.52826 m 12.31549,45.93158 c 7.21072,-1.85956 10.56857,-5.54248 10.76404,-11.80615 0.17346,-5.5597 -3.04022,-10.32898 -8.08243,-11.90906 -4.84662,-1.51886 -9.34143,-0.80072 -12.91751,2.87762 -3.74817,3.85535 -4.16043,8.67542 -2.39966,13.5011 1.96194,5.37701 6.3873,7.35663 12.63556,7.33649 z"
     id="path10" /><path
     fill="#5c9b67"
     opacity="1"
     stroke="none"
     d="m 684.86102,843 c -6e-5,-8.14417 -6e-5,-15.78827 -6e-5,-23.80225 9.71674,0 19.11975,0 28.94751,0 0.15979,1.27472 0.33679,2.6875 0.51569,4.11481 0.30267,0.0388 0.71045,0.22833 0.91803,0.0983 22.4237,-14.04224 47.24652,-3.32446 52.54992,22.75567 2.26246,11.12617 1.20447,21.94929 -4.09784,32.05915 -9.23883,17.61542 -30.18884,23.08313 -46.97088,12.46667 -0.65253,-0.41284 -1.33038,-0.78576 -2.67346,-1.57531 0,11.58044 0,22.46374 0,33.56915 -9.77094,0 -19.04694,0 -29.18885,0 0,-26.38904 0,-52.78766 -6e-5,-79.68622 m 51.56635,5.18512 c -1.18347,-0.88843 -2.26593,-1.97968 -3.56873,-2.62866 -4.67138,-2.32697 -10.32574,-1.54016 -13.92145,1.7727 -3.63592,3.34992 -4.83276,8.776 -3.02514,13.7157 1.73584,4.74347 5.89837,7.65955 11.0542,7.74402 10.42505,0.17096 15.50042,-10.03333 9.46112,-20.60376 z"
     id="path12" /><path
     fill="#5c9b67"
     opacity="1"
     stroke="none"
     d="m 597.63159,877.28064 c -8.10187,-15.11182 -8.14233,-29.91907 1.5268,-43.70306 9.89618,-14.10761 24.61688,-18.29358 41.01269,-16.09204 16.31415,2.19048 28.1369,10.83184 33.15393,27.08727 7.77149,25.17975 -9.45215,49.80927 -35.8725,51.34003 -16.38848,0.94953 -30.17773,-4.07349 -39.82092,-18.6322 m 41.20862,-31.92755 c -0.95581,-0.26795 -1.89838,-0.60401 -2.86957,-0.79297 -7.28534,-1.41736 -13.24444,2.7359 -14.4389,10.03497 -1.13886,6.9596 3.14453,12.89026 10.13446,14.03198 5.47467,0.89411 10.95672,-2.04205 13.00915,-6.96771 2.49543,-5.98883 0.59693,-11.83758 -5.83514,-16.30627 z"
     id="path14" /><path
     fill="#4c7c56"
     opacity="1"
     stroke="none"
     d="m 603.11993,659.91882 c 12.69697,17.37378 13.17383,35.83265 5.70234,54.77356 -4.30878,10.92316 -12.14405,14.66797 -23.32508,11.21985 -26.84088,-8.27771 -49.63165,-33.98584 -36.76959,-71.10504 4.32684,-12.48706 15.42999,-17.76172 28.07977,-13.7627 10.62805,3.35999 18.97058,10.18439 26.31256,18.87433 z"
     id="path16" /><path
     fill="#4c7c56"
     opacity="1"
     stroke="none"
     d="m 389.21109,646.13989 c 3.91022,-1.86285 7.371,-3.99975 11.13428,-5.12567 12.96972,-3.88037 24.38113,1.85358 28.52728,14.66974 11.97006,37.00079 -11.48496,62.94147 -38.06177,70.42358 -10.50741,2.9582 -17.20392,-0.30462 -21.93622,-10.28253 -7.75839,-16.35834 -9.82937,-44.57751 12.20191,-63.31817 2.52929,-2.15155 5.21216,-4.12275 8.13452,-6.36695 z"
     id="path18" /><path
     fill="#4c7c56"
     opacity="1"
     stroke="none"
     d="m 256.80438,518.83069 c 11.18247,-0.89221 21.75598,-0.0576 31.3945,5.12823 8.64691,4.65229 12.64005,15.06214 8.8935,25.1062 -9.76517,26.1792 -30.27051,39.42365 -57.27144,36.40741 -6.01224,-0.67163 -12.12726,-2.35418 -17.68404,-4.75421 -10.33908,-4.46545 -13.94685,-12.10504 -10.37414,-22.76379 7.21267,-21.51837 21.33729,-35.63977 45.04162,-39.12384 z"
     id="path20" /><path
     fill="#5c9b67"
     opacity="1"
     stroke="none"
     d="m 384.50598,851.34546 c 8.9036,-1.29157 17.43478,-2.43848 26.15646,-3.61102 0.754,-4.67658 -1.86105,-8.42225 -7.51629,-8.44098 -4.02676,-0.0134 -8.03534,1.66009 -12.09863,2.27069 -1.83048,0.27502 -4.14347,0.41205 -5.59958,-0.45709 -4.84739,-2.89325 -9.40567,-6.27094 -14.50724,-9.75861 4.4924,-5.4455 10.12699,-8.80359 16.32264,-11.1203 10.7528,-4.02081 21.77743,-4.47913 32.86438,-1.37482 12.28524,3.43994 20.11645,12.03394 20.59018,24.61908 0.62545,16.6164 0.15383,33.27417 0.15383,50.2619 -9.72079,0 -19.27056,0 -29.01956,0 -0.28595,-1.59558 -0.56356,-3.14453 -0.94543,-5.2752 -7.83569,6.51397 -16.31931,8.95849 -25.88883,6.92199 -11.612,-2.47125 -17.61392,-8.54065 -18.82431,-19.00732 -1.19729,-10.35321 4.15931,-18.97473 14.68811,-23.61084 1.06436,-0.46869 2.167,-0.85053 3.62427,-1.41748 m 17.1153,22.87109 c 9.07226,-0.69958 11.14349,-3.29626 9.29477,-12.68811 -3.62711,0.65363 -7.52674,0.74207 -10.83155,2.18903 -1.89474,0.82953 -3.75296,3.8164 -3.86346,5.92456 -0.0748,1.42645 2.92114,3.01391 5.40024,4.57452 z"
     id="path22" /><path
     fill="#4c7c56"
     opacity="1"
     stroke="none"
     d="m 721.71985,585.51855 c -21.1922,-4.42468 -34.61731,-17.25158 -41.50311,-36.81188 -4.00123,-11.36622 1.23706,-22.2591 12.38995,-26.45765 28.55908,-10.75103 66.15155,1.58417 73.02362,38.88379 1.44031,7.81769 -1.09082,13.62073 -7.9563,17.80561 -10.98242,6.69439 -22.93909,8.42932 -35.95416,6.58013 z"
     id="path24" /><path
     fill="#5c9b67"
     opacity="1"
     stroke="none"
     d="m 830.6814,853.52759 c 10.24695,-5.03174 20.94995,-4.8949 31.58129,-4.83435 0.47999,-5.66889 -2.1029,-9.28699 -7.60345,-9.38739 -3.87042,-0.0707 -7.97137,0.79864 -11.5849,2.22345 -2.65222,1.04583 -4.37823,1.21942 -6.67633,-0.49463 -4.39331,-3.27704 -9.00946,-6.25525 -14.4386,-9.97846 3.53504,-2.70215 6.40729,-5.40149 9.72309,-7.34344 13.10418,-7.67499 27.12976,-8.73731 41.44903,-4.40344 11.69391,3.53924 18.69251,12.65185 18.9563,24.82586 0.35644,16.44757 0.0886,32.90869 0.0886,49.65399 -9.7608,0 -19.18322,0 -28.98388,0 -0.12403,-1.74475 -0.24665,-3.4693 -0.41187,-5.79266 -7.90832,6.94226 -16.62103,9.49585 -26.56036,7.30792 -10.52478,-2.31677 -16.88642,-8.12817 -18.20154,-16.71606 -1.74805,-11.41516 2.12128,-19.2096 12.6626,-25.06079 m 16.64727,14.42779 c 0.32203,5.28254 2.1847,7.07276 7.62018,6.09241 8.3031,-1.4975 9.15998,-4.03503 7.44446,-12.06543 -5.47314,0.18182 -11.24658,-0.68909 -15.06464,5.97302 z"
     id="path26" /><path
     fill="#5d9b67"
     opacity="1"
     stroke="none"
     d="m 453.10403,842.30176 c 6.60367,-16.02606 18.85297,-23.84174 35.23133,-25.15113 15.97439,-1.2771 29.36368,4.03412 39.60055,17.99506 -8.35522,5.18036 -16.32977,10.1247 -24.26333,15.0437 -6.90512,-7.3114 -14.99704,-7.83636 -20.67588,-1.91168 -4.43927,4.63147 -3.98651,12.83386 0.64777,17.21478 5.41171,5.11579 12.99637,4.20233 19.77228,-2.75909 7.90594,4.81653 15.92816,9.70392 23.90936,14.56628 -7.17395,15.76618 -32.1589,23.2807 -51.59427,15.84509 -20.30197,-7.76715 -29.70563,-28.63726 -22.62781,-50.84301 z"
     id="path28" /><path
     fill="#5d9c68"
     opacity="1"
     stroke="none"
     d="m 530.89282,829.02179 c 0,-3.47223 0,-6.44971 0,-9.98279 2.9906,-0.13141 5.71997,-0.25134 8.94531,-0.39307 0,-5.05322 0,-9.95733 0,-15.26696 10.04773,0 19.60486,0 29.86438,0 0,4.87634 0,9.91259 0,15.46466 5.25995,0 9.84003,0 14.65369,0 0,8.60504 0,16.67248 0,25.20007 -4.87866,0 -9.47241,0 -14.42334,0 0,6.22858 -0.23462,12.01532 0.0821,17.77185 0.21259,3.86456 3.02741,5.80524 6.71344,6.16175 2.44208,0.2362 4.92554,0.0449 7.9162,0.0449 0,8.09613 0.11676,15.88909 -0.13373,23.67022 -0.035,1.08844 -1.85455,3.01099 -2.87878,3.03174 -6.76239,0.13727 -13.75458,0.89325 -20.25501,-0.49878 -13.32781,-2.85388 -20.79333,-14.08893 -21.22033,-30.065 -0.17304,-6.47272 -0.0286,-12.95398 -0.0286,-19.91834 -3.01733,0 -5.75549,0 -9.23523,0 0,-5.22216 0,-9.97387 -6e-5,-15.22021 z"
     id="path30" /><path
     fill="#5e9c68"
     opacity="1"
     stroke="none"
     d="m 130.83408,795.17389 c 3e-5,33.06341 3e-5,65.64545 3e-5,98.56952 -11.29019,0 -22.17059,0 -33.377796,0 0,-34.40442 0,-68.75281 0,-103.42554 10.964306,0 21.848826,0 33.094756,0 0.0962,1.48737 0.18959,2.93097 0.28301,4.85602 z"
     id="path32" /><path
     fill="#5e9c69"
     opacity="1"
     stroke="none"
     d="m 807.97687,840.00012 c 0,18.11871 0,35.73743 0,53.72144 -9.84467,0 -19.39905,0 -29.29096,0 0,-24.69446 0,-49.40839 0,-74.51392 9.59626,0 19.1294,0 29.29096,0 0,6.7583 0,13.52539 0,20.79248 z"
     id="path34" /><path
     fill="#e8b643"
     opacity="1"
     stroke="none"
     d="m 808.90417,794.46082 c 0.16492,10.30816 -4.63775,16.55126 -13.32769,17.7984 -7.42749,1.06591 -14.64704,-3.81574 -16.58649,-11.21534 -2.05536,-7.84167 2.08264,-15.85553 9.55322,-18.50128 7.56183,-2.6781 15.82593,0.83368 19.20679,8.20557 0.48083,1.04846 0.74445,2.19647 1.15417,3.71265 z"
     id="path36" /><path
     fill="#81b574"
     opacity="1"
     stroke="none"
     d="m 548.9632,388.97006 c 1.16314,-3.26248 2.10723,-6.62338 3.52313,-9.77222 14.50268,-32.25357 33.96094,-61.04867 60.56146,-84.57235 20.8811,-18.46588 44.62763,-32.38779 70.92828,-41.68045 12.15497,-4.29465 24.59699,-7.77692 38.2298,-12.04068 -0.61774,3.32719 -0.74798,5.20585 -1.32159,6.93767 -6.09064,18.38826 -15.99616,34.70381 -28.02442,49.6873 -26.96441,33.58914 -59.77929,59.99975 -98.82477,78.31497 -13.97375,6.55466 -28.43969,12.09326 -44.57952,13.20203 -0.45459,-0.0433 -0.49237,-0.0763 -0.49237,-0.0763 z"
     id="path38" /><path
     fill="#81b574"
     opacity="1"
     stroke="none"
     d="m 424.81634,390.80365 c -30.39193,-8.29449 -58.56777,-20.60458 -84.26098,-38.43689 -29.25632,-20.30524 -52.89691,-45.85147 -71.42362,-76.14438 -6.40161,-10.46731 -12.1141,-21.35605 -18.68409,-33.01541 15.80644,1.41925 29.83787,4.62601 43.44148,9.7475 34.6893,13.05987 63.68329,34.38672 88.21167,61.82632 18.54623,20.74738 33.08154,44.09982 42.47513,70.44336 0.60434,1.69473 0.43087,3.66687 0.24041,5.5795 z"
     id="path40" /><path
     fill="#e7b540"
     opacity="1"
     stroke="none"
     d="m 455.31799,121.4332 c 10.20255,-16.40189 27.81699,-23.479823 44.88474,-18.28369 17.18515,5.23187 28.34659,20.87667 27.75168,38.89895 -0.62983,19.08016 -16.97052,35.80861 -35.34058,37.15956 -22.78635,1.67574 -39.41428,-15.38926 -41.73373,-33.3312 -1.11145,-8.5974 0.42984,-16.50564 4.43789,-24.44362 z"
     id="path42" /><path
     fill="#81b574"
     opacity="1"
     stroke="none"
     d="m 549.01746,389.02191 c -0.10364,0.0349 -0.22382,0.051 -0.1991,0.008 0.14484,-0.0595 0.18262,-0.0265 0.1991,-0.008 z"
     id="path44" /></g>





</svg>
